<?xml version="1.0" encoding="UTF-8"?>
<svg width="290px" height="33px" viewBox="0 0 290 33" version="1.1" xmlns="http://www.w3.org/2000/svg" xmlns:xlink="http://www.w3.org/1999/xlink">
    <!-- Generator: Sketch 48.1 (47250) - http://www.bohemiancoding.com/sketch -->
    <title>Group</title>
    <desc>Created with Sketch.</desc>
    <defs></defs>
    <g id="Artboard" stroke="none" stroke-width="1" fill="none" fill-rule="evenodd" transform="translate(-73.000000, -166.000000)">
        <g id="Group" transform="translate(73.000000, 166.000000)">
            <path d="M16.110872,11.0019046 C16.4111445,10.3325949 17.3039395,9.8351969 18.0294071,9.53607046 C19.6144334,10.4735625 21.0963127,12.0047232 21.2441568,14.4710837 C19.2981158,12.7015388 17.1721405,12.1067241 16.0707593,11.915329 C15.9458367,11.4740889 16.0260622,11.1910075 16.110872,11.0019046 Z M4.8632594,9.10972932 C4.54808787,11.2139291 5.1749927,13.7192563 5.86607793,15.6813424 C3.44212229,17.9047343 2.84386941,20.256487 2.7544753,21.7509732 C2.32698809,21.1790801 1.89491656,20.460489 1.46513719,19.5356038 C-1.0459204,14.1616425 2.71894687,15.952963 3.34814387,11.7732153 C3.57162914,10.2718527 4.20311829,9.39166459 4.91941724,8.87478327 C4.90337214,8.95271659 4.87701234,9.02950384 4.8632594,9.10972932 Z M6.29127298,8.26850784 C6.45745434,7.85133533 6.67177099,7.43989322 6.93995331,7.04105796 L4.85409078,4.74317094 L5.70218873,3.97186023 L7.64937579,6.11502668 C7.89463655,5.82736102 8.15938064,5.54771791 8.43443944,5.27609735 L6.51132002,3.10427894 L7.35941798,2.33296824 L9.27566092,4.49791018 C9.56791089,4.24462687 9.8635991,3.99822003 10.1615795,3.76785829 L8.24304436,1.65907419 L9.09114231,0.886617401 L11.0853186,3.08250346 C12.6737831,1.95820063 14.0192791,1.25794678 14.0192791,1.25794678 L15.1653574,3.55010341 C15.1653574,3.55010341 8.46652963,7.08690109 9.11979427,13.4441975 C8.71293647,13.656222 8.34389925,13.8739769 7.98746889,14.09517 C7.56227384,14.3564759 7.16916898,14.6258043 6.80815431,14.8974248 C6.21907005,13.1393407 5.735425,11.0259723 5.99787694,9.28049499 C6.0471583,8.94010973 6.15718182,8.60201663 6.29127298,8.26850784 Z M21.1662235,16.0343345 C22.0613106,17.0382991 22.871588,18.3654578 23.4262899,20.1327106 C25.3092966,26.1049247 25.2107338,29.5695194 23.1867595,31.0536909 C21.3920009,32.3705348 19.6614226,32.6742456 15.2673584,32.0771388 C10.8755863,31.4811781 5.22885839,30.8840713 3.97275655,23.1193907 C3.97275655,23.1193907 3.96014969,23.0609407 3.94639675,22.9749848 C3.84898009,22.3469339 3.61518012,19.582593 6.31075632,16.860657 C6.5812308,16.5867443 6.88837979,16.3139776 7.22188858,16.0435031 C7.47746404,15.836063 7.74793853,15.632061 8.04362673,15.4280591 C8.68199235,14.9925493 9.40287561,14.5650621 10.2486814,14.1616425 C10.2486814,13.3674103 10.2910863,11.636832 11.047498,9.96011943 C11.3500627,9.29539401 11.7637969,8.63754506 12.3322518,8.05075296 C13.5597017,6.78319034 15.5068887,5.84111396 18.6047384,5.84111396 L18.6047384,8.1332706 C18.6047384,8.1332706 17.6661003,8.36134018 16.7309004,8.89197444 C15.4576074,9.61514986 14.1843144,10.9021958 15.2696505,12.9662829 C15.2696505,12.9662829 18.5760865,13.1278799 21.1662235,16.0343345 Z" id="Combined-Shape" fill="#EB5C4A" fill-rule="nonzero"></path>
            <path d="M61.0224609,13.9857385 L59.0263672,13.9857385 L59.0263672,11.5384729 L53.0380859,11.5384729 L53.0380859,13.9857385 L51.0488281,13.9857385 L51.0488281,10.0072229 L51.6298828,10.0072229 C52.1494167,10.0072229 52.5231108,9.66087217 52.7509766,8.96816037 C52.9788423,8.27544857 53.1269528,7.17259502 53.1953125,5.65956662 L53.4208984,1.58534787 L59.8398438,1.58534787 L59.8398438,10.0072229 L61.0224609,10.0072229 L61.0224609,13.9857385 Z M55.1914062,5.65956662 C55.1458331,6.62115997 55.0410164,7.4642505 54.8769531,8.18886349 C54.7128898,8.91347649 54.4895847,9.51959022 54.2070312,10.0072229 L57.8505859,10.0072229 L57.8505859,3.12343381 L55.328125,3.12343381 L55.1914062,5.65956662 Z M65.3222656,6.00819943 L65.5,6.60976193 L65.5410156,6.61659787 L67.6328125,1.58534787 L69.7451172,1.58534787 L66.1152344,9.65175412 C65.8281236,10.2943355 65.4817729,10.7933539 65.0761719,11.1488244 C64.6705709,11.504295 64.1031938,11.6820276 63.3740234,11.6820276 C63.1005846,11.6820276 62.8567719,11.658102 62.6425781,11.6102502 C62.4283843,11.5623984 62.1822931,11.4929004 61.9042969,11.4017541 L62.1367188,9.97304318 C62.3417979,10.0322883 62.5229484,10.0767214 62.6801758,10.106344 C62.8374031,10.1359665 62.9957674,10.1507776 63.1552734,10.1507776 C63.5289732,10.1507776 63.8160797,10.0698864 64.0166016,9.90810178 C64.2171234,9.74631711 64.3743484,9.50592238 64.4882812,9.18691037 L64.6386719,8.81093381 L61.1318359,1.58534787 L63.2851562,1.58534787 L65.3222656,6.00819943 Z M82.3710938,11.5384729 L80.375,11.5384729 L80.375,7.40273068 L76.3212891,7.40273068 L76.3212891,11.5384729 L74.3251953,11.5384729 L74.3251953,1.58534787 L76.3212891,1.58534787 L76.3212891,5.86464474 L80.375,5.86464474 L80.375,1.58534787 L82.3710938,1.58534787 L82.3710938,11.5384729 Z M92.2490234,11.5384729 L90.2529297,11.5384729 L90.2529297,7.40273068 L86.1992188,7.40273068 L86.1992188,11.5384729 L84.203125,11.5384729 L84.203125,1.58534787 L86.1992188,1.58534787 L86.1992188,5.86464474 L90.2529297,5.86464474 L90.2529297,1.58534787 L92.2490234,1.58534787 L92.2490234,11.5384729 Z M93.9921875,1.58534787 L95.9882812,1.58534787 L95.9882812,10.0003869 L100.048828,10.0003869 L100.048828,1.58534787 L102.044922,1.58534787 L102.044922,10.0003869 L103.37793,10.0003869 L103.37793,13.9925744 L101.381836,13.9925744 L101.381836,11.5384729 L93.9921875,11.5384729 L93.9921875,1.58534787 Z M108.128906,3.55409787 L108.826172,1.58534787 L109.810547,1.58534787 L109.810547,5.30409787 L108.128906,5.30409787 L108.128906,3.55409787 Z M110.371094,3.55409787 L111.068359,1.58534787 L112.052734,1.58534787 L112.052734,5.30409787 L110.371094,5.30409787 L110.371094,3.55409787 Z M116.345703,11.5384729 L114.349609,11.5384729 L114.349609,1.58534787 L116.345703,1.58534787 L116.345703,11.5384729 Z M124.5625,11.5384729 L122.566406,11.5384729 L122.566406,8.66737912 L120.132812,8.66737912 L120.132812,11.5384729 L118.136719,11.5384729 L118.136719,4.14198849 L120.132812,4.14198849 L120.132812,7.13612912 L122.566406,7.13612912 L122.566406,4.14198849 L124.5625,4.14198849 L124.5625,11.5384729 Z M129.163086,10.1507776 C129.509442,10.1507776 129.785155,10.0471002 129.990234,9.8397424 C130.195314,9.63238459 130.297852,9.35553189 130.297852,9.00917599 L132.116211,9.00917599 L132.129883,9.05019162 C132.148112,9.79759119 131.87012,10.4230732 131.295898,10.9266565 C130.721677,11.4302397 130.010746,11.6820276 129.163086,11.6820276 C128.06933,11.6820276 127.223961,11.3322589 126.626953,10.6327112 C126.029945,9.93316338 125.731445,9.03880384 125.731445,7.94960568 L125.731445,7.74452756 C125.731445,6.65988672 126.028806,5.76552717 126.623535,5.06142209 C127.218265,4.35731701 128.060216,4.00526974 129.149414,4.00526974 C130.051762,4.00526974 130.778643,4.26503277 131.330078,4.78456662 C131.881513,5.30410047 132.148112,5.98768738 132.129883,6.83534787 L132.116211,6.87636349 L130.297852,6.87636349 C130.297852,6.49354908 130.196453,6.17568117 129.993652,5.92275021 C129.790852,5.66981926 129.509442,5.54335568 129.149414,5.54335568 C128.634438,5.54335568 128.268719,5.74957107 128.052246,6.16200803 C127.835774,6.57444498 127.727539,7.10194622 127.727539,7.74452756 L127.727539,7.94960568 C127.727539,8.60585896 127.835774,9.13677813 128.052246,9.54237912 C128.268719,9.94798011 128.638995,10.1507776 129.163086,10.1507776 Z M139.553711,5.66640256 L137.188477,5.66640256 L137.188477,11.5384729 L135.185547,11.5384729 L135.185547,5.66640256 L132.854492,5.66640256 L132.854492,4.14198849 L139.553711,4.14198849 L139.553711,5.66640256 Z M145.022461,4.14198849 L147.011719,4.14198849 L147.011719,11.5384729 L145.022461,11.5384729 L145.022461,7.02675412 L144.981445,7.01991818 L142.568359,11.5384729 L140.572266,11.5384729 L140.572266,4.14198849 L142.568359,4.14198849 L142.568359,8.64003537 L142.609375,8.64687131 L145.022461,4.14198849 Z M154.770508,5.66640256 L152.405273,5.66640256 L152.405273,11.5384729 L150.402344,11.5384729 L150.402344,5.66640256 L148.071289,5.66640256 L148.071289,4.14198849 L154.770508,4.14198849 L154.770508,5.66640256 Z M158.489258,8.43495724 L158.571289,8.84511349 L158.612305,8.84511349 L160.027344,4.14198849 L162.173828,4.14198849 L159.172852,12.6458947 C158.963215,13.1745432 158.678387,13.620014 158.318359,13.9823205 C157.958332,14.344627 157.418298,14.5257776 156.698242,14.5257776 C156.529622,14.5257776 156.373536,14.5121058 156.22998,14.4847619 C156.086425,14.457418 155.91211,14.4186815 155.707031,14.368551 L155.939453,12.9124963 C155.998698,12.9216109 156.0625,12.9307254 156.130859,12.9398401 C156.199219,12.9489547 156.260742,12.9535119 156.31543,12.9535119 C156.643556,12.9535119 156.896483,12.8726208 157.074219,12.7108362 C157.251954,12.5490515 157.388671,12.3473933 157.484375,12.1058557 L157.716797,11.5316369 L155.091797,4.14198849 L157.238281,4.14198849 L158.489258,8.43495724 Z M169.235352,5.66640256 L166.870117,5.66640256 L166.870117,11.5384729 L164.867188,11.5384729 L164.867188,5.66640256 L162.536133,5.66640256 L162.536133,4.14198849 L169.235352,4.14198849 L169.235352,5.66640256 Z M176.652344,8.76991818 L175.886719,8.76991818 L175.886719,11.5384729 L173.890625,11.5384729 L173.890625,4.14198849 L175.886719,4.14198849 L175.886719,6.95839474 L176.481445,6.95839474 L178.176758,4.14198849 L180.699219,4.14198849 L178.251953,7.57362912 L180.917969,11.5384729 L178.258789,11.5384729 L176.652344,8.76991818 Z M186.113281,11.5384729 C186.040364,11.3698522 185.977702,11.1921196 185.925293,11.0052697 C185.872884,10.8184199 185.835287,10.6270155 185.8125,10.431051 C185.607421,10.7910788 185.336265,11.0895785 184.999023,11.3265588 C184.661782,11.5635392 184.260745,11.6820276 183.795898,11.6820276 C183.021155,11.6820276 182.424156,11.482648 182.004883,11.083883 C181.58561,10.685118 181.375977,10.1416664 181.375977,9.45351193 C181.375977,8.72889893 181.655108,8.16721835 182.213379,7.76845334 C182.77165,7.36968832 183.586258,7.17030881 184.657227,7.17030881 L185.77832,7.17030881 L185.77832,6.58241818 C185.77832,6.22694765 185.684897,5.95123427 185.498047,5.75526974 C185.311197,5.55930522 185.033205,5.46132443 184.664062,5.46132443 C184.340493,5.46132443 184.090984,5.53993693 183.915527,5.69716428 C183.740071,5.85439162 183.652344,6.0697215 183.652344,6.34316037 L181.731445,6.34316037 L181.717773,6.30214474 C181.685872,5.67779266 181.958168,5.13889831 182.534668,4.68544553 C183.111168,4.23199274 183.864253,4.00526974 184.793945,4.00526974 C185.682622,4.00526974 186.401527,4.2285748 186.950684,4.67519162 C187.49984,5.12180844 187.774414,5.76210151 187.774414,6.59609006 L187.774414,9.65175412 C187.774414,9.99811002 187.800618,10.3239531 187.853027,10.6292932 C187.905436,10.9346333 187.988606,11.2376901 188.102539,11.5384729 L186.113281,11.5384729 Z M184.288086,10.2054651 C184.634442,10.2054651 184.944335,10.1188774 185.217773,9.94569943 C185.491212,9.77252148 185.678059,9.57200265 185.77832,9.34413693 L185.77832,8.29823849 L184.657227,8.29823849 C184.233396,8.29823849 183.91325,8.40305515 183.696777,8.61269162 C183.480305,8.82232808 183.37207,9.07981249 183.37207,9.38515256 C183.37207,9.63580485 183.452961,9.83518437 183.614746,9.98329709 C183.776531,10.1314098 184.000975,10.2054651 184.288086,10.2054651 Z M195.943359,8.04530881 C195.943359,9.13906428 195.690432,10.0186128 195.18457,10.6839807 C194.678708,11.3493486 193.972335,11.6820276 193.06543,11.6820276 C192.678058,11.6820276 192.333986,11.6102509 192.033203,11.4666955 C191.73242,11.3231401 191.474936,11.1123675 191.260742,10.8343713 L191.260742,14.3822229 L189.271484,14.3822229 L189.271484,4.14198849 L191.069336,4.14198849 L191.185547,5.01698849 C191.404298,4.69341917 191.667479,4.44390994 191.975098,4.26845334 C192.282716,4.09299673 192.6416,4.00526974 193.051758,4.00526974 C193.967778,4.00526974 194.678708,4.36301356 195.18457,5.07851193 C195.690432,5.7940103 195.943359,6.73508162 195.943359,7.90175412 L195.943359,8.04530881 Z M193.947266,7.90175412 C193.947266,7.20448501 193.831056,6.63938649 193.598633,6.20644162 C193.36621,5.77349675 193.010745,5.55702756 192.532227,5.55702756 C192.231444,5.55702756 191.975099,5.61855038 191.763184,5.74159787 C191.551268,5.86464536 191.38379,6.04009933 191.260742,6.26796506 L191.260742,9.50819943 C191.38379,9.7178359 191.551268,9.87733951 191.763184,9.98671506 C191.975099,10.0960906 192.236001,10.1507776 192.545898,10.1507776 C193.028974,10.1507776 193.3833,9.96165184 193.608887,9.58339474 C193.834474,9.20513764 193.947266,8.69244746 193.947266,8.04530881 L193.947266,7.90175412 Z M197.378906,10.0072229 L197.378906,10.0003869 L197.59082,10.0003869 C197.950848,10.0003869 198.204915,9.78391774 198.353027,9.35097287 C198.50114,8.918028 198.60026,8.19114724 198.650391,7.17030881 L198.800781,4.14198849 L204.276367,4.14198849 L204.276367,10.0072229 L205.294922,10.0072229 L205.294922,13.9857385 L203.298828,13.9857385 L203.298828,11.5384729 L198.90332,11.5384729 L198.90332,13.9857385 L196.907227,13.9857385 L196.907227,10.0072229 L197.378906,10.0072229 Z M200.639648,7.17030881 C200.607747,7.77643163 200.549642,8.31532598 200.465332,8.78700803 C200.381022,9.25869007 200.263673,9.66542429 200.113281,10.0072229 L202.287109,10.0072229 L202.287109,5.73476193 L200.714844,5.73476193 L200.639648,7.17030881 Z M208.603516,11.5384729 L206.607422,11.5384729 L206.607422,4.14198849 L208.603516,4.14198849 L208.603516,11.5384729 Z M208.603516,2.37148068 L206.607422,2.37148068 L206.607422,0.874410369 L208.603516,0.874410369 L208.603516,2.37148068 Z M209.936523,7.77187131 C209.936523,6.66900121 210.244138,5.76552717 210.859375,5.06142209 C211.474612,4.35731701 212.326817,4.00526974 213.416016,4.00526974 C214.509771,4.00526974 215.366533,4.35617769 215.986328,5.05800412 C216.606123,5.75983055 216.916016,6.66444389 216.916016,7.77187131 L216.916016,7.91542599 C216.916016,9.02741072 216.607262,9.93316338 215.989746,10.6327112 C215.37223,11.3322589 214.518886,11.6820276 213.429688,11.6820276 C212.335932,11.6820276 211.480309,11.3322589 210.862793,10.6327112 C210.245277,9.93316338 209.936523,9.02741072 209.936523,7.91542599 L209.936523,7.77187131 Z M211.925781,7.91542599 C211.925781,8.58990853 212.04427,9.13108151 212.28125,9.53896115 C212.51823,9.94684079 212.901039,10.1507776 213.429688,10.1507776 C213.944664,10.1507776 214.321776,9.94570148 214.561035,9.53554318 C214.800294,9.12538488 214.919922,8.58535122 214.919922,7.91542599 L214.919922,7.77187131 C214.919922,7.11561803 214.799155,6.58014161 214.557617,6.16542599 C214.31608,5.75071038 213.935549,5.54335568 213.416016,5.54335568 C212.901039,5.54335568 212.523927,5.75184969 212.284668,6.16884396 C212.045409,6.58583824 211.925781,7.12017534 211.925781,7.77187131 L211.925781,7.91542599 Z M224.551758,4.14198849 L224.551758,11.5384729 L222.5625,11.5384729 L222.5625,5.68691037 L220.785156,5.68691037 L220.785156,7.29335568 C220.785156,8.75169631 220.561851,9.82378845 220.115234,10.5096643 C219.668618,11.1955401 218.905279,11.5384729 217.825195,11.5384729 L217.503906,11.5384729 L217.483398,9.96620724 L217.695313,9.95937131 C218.151044,9.95937131 218.447265,9.77252422 218.583984,9.39882443 C218.720704,9.02512465 218.789063,8.32330875 218.789063,7.29335568 L218.789063,4.14198849 L224.551758,4.14198849 Z M225.693359,7.77187131 C225.693359,6.66900121 226.000973,5.76552717 226.616211,5.06142209 C227.231448,4.35731701 228.083653,4.00526974 229.172852,4.00526974 C230.266607,4.00526974 231.123369,4.35617769 231.743164,5.05800412 C232.362959,5.75983055 232.672852,6.66444389 232.672852,7.77187131 L232.672852,7.91542599 C232.672852,9.02741072 232.364098,9.93316338 231.746582,10.6327112 C231.129066,11.3322589 230.275722,11.6820276 229.186523,11.6820276 C228.092768,11.6820276 227.237145,11.3322589 226.619629,10.6327112 C226.002113,9.93316338 225.693359,9.02741072 225.693359,7.91542599 L225.693359,7.77187131 Z M227.682617,7.91542599 C227.682617,8.58990853 227.801106,9.13108151 228.038086,9.53896115 C228.275066,9.94684079 228.657875,10.1507776 229.186523,10.1507776 C229.7015,10.1507776 230.078612,9.94570148 230.317871,9.53554318 C230.55713,9.12538488 230.676758,8.58535122 230.676758,7.91542599 L230.676758,7.77187131 C230.676758,7.11561803 230.555991,6.58014161 230.314453,6.16542599 C230.072915,5.75071038 229.692385,5.54335568 229.172852,5.54335568 C228.657875,5.54335568 228.280763,5.75184969 228.041504,6.16884396 C227.802245,6.58583824 227.682617,7.12017534 227.682617,7.77187131 L227.682617,7.91542599 Z M238.920898,5.68691037 L235.865234,5.68691037 L235.865234,11.5384729 L233.869141,11.5384729 L233.869141,4.14198849 L238.920898,4.14198849 L238.920898,5.68691037 Z M241.84668,11.5384729 L239.850586,11.5384729 L239.850586,4.14198849 L241.84668,4.14198849 L241.84668,11.5384729 Z M241.84668,2.37148068 L239.850586,2.37148068 L239.850586,0.874410369 L241.84668,0.874410369 L241.84668,2.37148068 Z M245.626953,11.5384729 L243.630859,11.5384729 L243.630859,4.14198849 L245.626953,4.14198849 L245.626953,11.5384729 Z M247.260742,2.93886349 L245.442383,2.93886349 L245.442383,1.54433224 L247.260742,1.54433224 L247.260742,2.93886349 Z M243.842773,2.93886349 L242.024414,2.93886349 L242.024414,1.54433224 L243.842773,1.54433224 L243.842773,2.93886349 Z M252.914062,11.5384729 L250.917969,11.5384729 L250.917969,4.14198849 L252.914062,4.14198849 L252.914062,11.5384729 Z M252.914062,2.37148068 L250.917969,2.37148068 L250.917969,0.874410369 L252.914062,0.874410369 L252.914062,2.37148068 Z M259.025391,9.21425412 L259.066406,9.21425412 L260.973633,4.14198849 L263.46875,4.14198849 L263.46875,11.5384729 L261.479492,11.5384729 L261.479492,7.12245724 L261.438477,7.11562131 L259.722656,11.5384729 L258.382812,11.5384729 L256.708008,7.21132443 L256.666992,7.21816037 L256.666992,11.5384729 L254.670898,11.5384729 L254.670898,4.14198849 L257.145508,4.14198849 L259.025391,9.21425412 Z M268.404297,11.6820276 C267.301427,11.6820276 266.440107,11.343652 265.820312,10.6668908 C265.200518,9.99012964 264.890625,9.11855633 264.890625,8.05214474 L264.890625,7.77870724 C264.890625,6.67127983 265.191403,5.76438786 265.792969,5.05800412 C266.394534,4.35162038 267.221674,4.00071243 268.274414,4.00526974 C269.267909,4.00526974 270.030108,4.30946592 270.561035,4.9178674 C271.091962,5.52626888 271.357422,6.34543387 271.357422,7.37538693 L271.357422,8.40761349 L266.948242,8.40761349 L266.927734,8.44862912 C266.959636,8.95449102 267.113443,9.36464317 267.38916,9.67909787 C267.664878,9.99355257 268.073891,10.1507776 268.616211,10.1507776 C269.062828,10.1507776 269.442218,10.1052051 269.754395,10.0140588 C270.066571,9.92291252 270.388996,9.78391651 270.72168,9.59706662 L271.261719,10.8275354 C270.965493,11.069073 270.564456,11.2718705 270.058594,11.4359338 C269.552732,11.5999971 269.001305,11.6820276 268.404297,11.6820276 Z M268.274414,5.54335568 C267.87337,5.54335568 267.564617,5.68121238 267.348145,5.9569299 C267.131672,6.23264743 267.000651,6.59836642 266.955078,7.05409787 L266.96875,7.08827756 L269.402344,7.08827756 L269.402344,6.93788693 C269.402344,6.50494206 269.313477,6.16428791 269.135742,5.91591428 C268.958007,5.66754064 268.6709,5.54335568 268.274414,5.54335568 Z M278.911133,11.5384729 L276.915039,11.5384729 L276.915039,8.66737912 L274.481445,8.66737912 L274.481445,11.5384729 L272.485352,11.5384729 L272.485352,4.14198849 L274.481445,4.14198849 L274.481445,7.13612912 L276.915039,7.13612912 L276.915039,4.14198849 L278.911133,4.14198849 L278.911133,11.5384729 Z M282.520508,11.5384729 L280.524414,11.5384729 L280.524414,4.14198849 L282.520508,4.14198849 L282.520508,11.5384729 Z M282.520508,2.37148068 L280.524414,2.37148068 L280.524414,0.874410369 L282.520508,0.874410369 L282.520508,2.37148068 Z M56.0800781,29.5384729 C56.0071611,29.3698522 55.944499,29.1921196 55.8920898,29.0052697 C55.8396807,28.8184199 55.8020834,28.6270155 55.7792969,28.431051 C55.5742177,28.7910788 55.3030616,29.0895785 54.9658203,29.3265588 C54.628579,29.5635392 54.2275414,29.6820276 53.7626953,29.6820276 C52.9879519,29.6820276 52.3909526,29.482648 51.9716797,29.083883 C51.5524068,28.685118 51.3427734,28.1416664 51.3427734,27.4535119 C51.3427734,26.7288989 51.6219048,26.1672184 52.1801758,25.7684533 C52.7384468,25.3696883 53.5530545,25.1703088 54.6240234,25.1703088 L55.7451172,25.1703088 L55.7451172,24.5824182 C55.7451172,24.2269477 55.6516936,23.9512343 55.4648438,23.7552697 C55.2779939,23.5593052 55.0000018,23.4613244 54.6308594,23.4613244 C54.30729,23.4613244 54.0577808,23.5399369 53.8823242,23.6971643 C53.7068676,23.8543916 53.6191406,24.0697215 53.6191406,24.3431604 L51.6982422,24.3431604 L51.6845703,24.3021447 C51.6526691,23.6777927 51.9249646,23.1388983 52.5014648,22.6854455 C53.0779651,22.2319927 53.83105,22.0052697 54.7607422,22.0052697 C55.6494185,22.0052697 56.3683241,22.2285748 56.9174805,22.6751916 C57.4666369,23.1218084 57.7412109,23.7621015 57.7412109,24.5960901 L57.7412109,27.6517541 C57.7412109,27.99811 57.7674151,28.3239531 57.8198242,28.6292932 C57.8722333,28.9346333 57.9554031,29.2376901 58.0693359,29.5384729 L56.0800781,29.5384729 Z M54.2548828,28.2054651 C54.6012387,28.2054651 54.9111314,28.1188774 55.1845703,27.9456994 C55.4580092,27.7725215 55.6448563,27.5720027 55.7451172,27.3441369 L55.7451172,26.2982385 L54.6240234,26.2982385 C54.2001932,26.2982385 53.8800467,26.4030552 53.6635742,26.6126916 C53.4471018,26.8223281 53.3388672,27.0798125 53.3388672,27.3851526 C53.3388672,27.6358049 53.4197583,27.8351844 53.581543,27.9832971 C53.7433276,28.1314098 53.967772,28.2054651 54.2548828,28.2054651 Z M62.1162109,26.7699182 L61.3505859,26.7699182 L61.3505859,29.5384729 L59.3544922,29.5384729 L59.3544922,22.1419885 L61.3505859,22.1419885 L61.3505859,24.9583947 L61.9453125,24.9583947 L63.640625,22.1419885 L66.1630859,22.1419885 L63.7158203,25.5736291 L66.3818359,29.5384729 L63.7226562,29.5384729 L62.1162109,26.7699182 Z M71.5771484,29.5384729 C71.5042314,29.3698522 71.4415693,29.1921196 71.3891602,29.0052697 C71.336751,28.8184199 71.2991538,28.6270155 71.2763672,28.431051 C71.071288,28.7910788 70.8001319,29.0895785 70.4628906,29.3265588 C70.1256494,29.5635392 69.7246117,29.6820276 69.2597656,29.6820276 C68.4850222,29.6820276 67.8880229,29.482648 67.46875,29.083883 C67.0494771,28.685118 66.8398438,28.1416664 66.8398438,27.4535119 C66.8398438,26.7288989 67.1189751,26.1672184 67.6772461,25.7684533 C68.2355171,25.3696883 69.0501249,25.1703088 70.1210938,25.1703088 L71.2421875,25.1703088 L71.2421875,24.5824182 C71.2421875,24.2269477 71.148764,23.9512343 70.9619141,23.7552697 C70.7750642,23.5593052 70.4970722,23.4613244 70.1279297,23.4613244 C69.8043604,23.4613244 69.5548511,23.5399369 69.3793945,23.6971643 C69.2039379,23.8543916 69.1162109,24.0697215 69.1162109,24.3431604 L67.1953125,24.3431604 L67.1816406,24.3021447 C67.1497394,23.6777927 67.4220349,23.1388983 67.9985352,22.6854455 C68.5750354,22.2319927 69.3281204,22.0052697 70.2578125,22.0052697 C71.1464888,22.0052697 71.8653944,22.2285748 72.4145508,22.6751916 C72.9637072,23.1218084 73.2382812,23.7621015 73.2382812,24.5960901 L73.2382812,27.6517541 C73.2382812,27.99811 73.2644854,28.3239531 73.3168945,28.6292932 C73.3693036,28.9346333 73.4524734,29.2376901 73.5664062,29.5384729 L71.5771484,29.5384729 Z M69.7519531,28.2054651 C70.098309,28.2054651 70.4082018,28.1188774 70.6816406,27.9456994 C70.9550795,27.7725215 71.1419266,27.5720027 71.2421875,27.3441369 L71.2421875,26.2982385 L70.1210938,26.2982385 C69.6972635,26.2982385 69.377117,26.4030552 69.1606445,26.6126916 C68.9441721,26.8223281 68.8359375,27.0798125 68.8359375,27.3851526 C68.8359375,27.6358049 68.9168286,27.8351844 69.0786133,27.9832971 C69.2403979,28.1314098 69.4648423,28.2054651 69.7519531,28.2054651 Z M74.9404297,28.0072229 L74.9404297,28.0003869 L75.1523438,28.0003869 C75.5123716,28.0003869 75.7664381,27.7839177 75.9145508,27.3509729 C76.0626635,26.918028 76.1617836,26.1911472 76.2119141,25.1703088 L76.3623047,22.1419885 L81.8378906,22.1419885 L81.8378906,28.0072229 L82.8564453,28.0072229 L82.8564453,31.9857385 L80.8603516,31.9857385 L80.8603516,29.5384729 L76.4648438,29.5384729 L76.4648438,31.9857385 L74.46875,31.9857385 L74.46875,28.0072229 L74.9404297,28.0072229 Z M78.2011719,25.1703088 C78.1692707,25.7764316 78.1111658,26.315326 78.0268555,26.787008 C77.9425452,27.2586901 77.8251961,27.6654243 77.6748047,28.0072229 L79.8486328,28.0072229 L79.8486328,23.7347619 L78.2763672,23.7347619 L78.2011719,25.1703088 Z M87.2724609,29.6820276 C86.1695908,29.6820276 85.3082713,29.343652 84.6884766,28.6668908 C84.0686818,27.9901296 83.7587891,27.1185563 83.7587891,26.0521447 L83.7587891,25.7787072 C83.7587891,24.6712798 84.0595673,23.7643879 84.6611328,23.0580041 C85.2626983,22.3516204 86.0898385,22.0007124 87.1425781,22.0052697 C88.1360727,22.0052697 88.8982721,22.3094659 89.4291992,22.9178674 C89.9601264,23.5262689 90.2255859,24.3454339 90.2255859,25.3753869 L90.2255859,26.4076135 L85.8164062,26.4076135 L85.7958984,26.4486291 C85.8277996,26.954491 85.9816067,27.3646432 86.2573242,27.6790979 C86.5330417,27.9935526 86.9420546,28.1507776 87.484375,28.1507776 C87.9309918,28.1507776 88.3103826,28.1052051 88.6225586,28.0140588 C88.9347346,27.9229125 89.2571598,27.7839165 89.5898438,27.5970666 L90.1298828,28.8275354 C89.8336574,29.069073 89.4326197,29.2718705 88.9267578,29.4359338 C88.4208959,29.5999971 87.8694691,29.6820276 87.2724609,29.6820276 Z M87.1425781,23.5433557 C86.7415345,23.5433557 86.432781,23.6812124 86.2163086,23.9569299 C85.9998362,24.2326474 85.8688153,24.5983664 85.8232422,25.0540979 L85.8369141,25.0882776 L88.2705078,25.0882776 L88.2705078,24.9378869 C88.2705078,24.5049421 88.1816415,24.1642879 88.0039062,23.9159143 C87.826171,23.6675406 87.5390645,23.5433557 87.1425781,23.5433557 Z M95.8583984,27.2142541 L95.8994141,27.2142541 L97.8066406,22.1419885 L100.301758,22.1419885 L100.301758,29.5384729 L98.3125,29.5384729 L98.3125,25.1224572 L98.2714844,25.1156213 L96.5556641,29.5384729 L95.2158203,29.5384729 L93.5410156,25.2113244 L93.5,25.2181604 L93.5,29.5384729 L91.5039062,29.5384729 L91.5039062,22.1419885 L93.9785156,22.1419885 L95.8583984,27.2142541 Z M104.129883,29.5384729 L102.133789,29.5384729 L102.133789,22.1419885 L104.129883,22.1419885 L104.129883,29.5384729 Z M104.129883,20.3714807 L102.133789,20.3714807 L102.133789,18.8744104 L104.129883,18.8744104 L104.129883,20.3714807 Z M108.648438,26.7699182 L107.882812,26.7699182 L107.882812,29.5384729 L105.886719,29.5384729 L105.886719,22.1419885 L107.882812,22.1419885 L107.882812,24.9583947 L108.477539,24.9583947 L110.172852,22.1419885 L112.695312,22.1419885 L110.248047,25.5736291 L112.914062,29.5384729 L110.254883,29.5384729 L108.648438,26.7699182 Z M118.109375,29.5384729 C118.036458,29.3698522 117.973796,29.1921196 117.921387,29.0052697 C117.868978,28.8184199 117.83138,28.6270155 117.808594,28.431051 C117.603515,28.7910788 117.332358,29.0895785 116.995117,29.3265588 C116.657876,29.5635392 116.256838,29.6820276 115.791992,29.6820276 C115.017249,29.6820276 114.420249,29.482648 114.000977,29.083883 C113.581704,28.685118 113.37207,28.1416664 113.37207,27.4535119 C113.37207,26.7288989 113.651202,26.1672184 114.209473,25.7684533 C114.767744,25.3696883 115.582351,25.1703088 116.65332,25.1703088 L117.774414,25.1703088 L117.774414,24.5824182 C117.774414,24.2269477 117.680991,23.9512343 117.494141,23.7552697 C117.307291,23.5593052 117.029299,23.4613244 116.660156,23.4613244 C116.336587,23.4613244 116.087078,23.5399369 115.911621,23.6971643 C115.736164,23.8543916 115.648438,24.0697215 115.648438,24.3431604 L113.727539,24.3431604 L113.713867,24.3021447 C113.681966,23.6777927 113.954261,23.1388983 114.530762,22.6854455 C115.107262,22.2319927 115.860347,22.0052697 116.790039,22.0052697 C117.678715,22.0052697 118.397621,22.2285748 118.946777,22.6751916 C119.495934,23.1218084 119.770508,23.7621015 119.770508,24.5960901 L119.770508,27.6517541 C119.770508,27.99811 119.796712,28.3239531 119.849121,28.6292932 C119.90153,28.9346333 119.9847,29.2376901 120.098633,29.5384729 L118.109375,29.5384729 Z M116.28418,28.2054651 C116.630536,28.2054651 116.940428,28.1188774 117.213867,27.9456994 C117.487306,27.7725215 117.674153,27.5720027 117.774414,27.3441369 L117.774414,26.2982385 L116.65332,26.2982385 C116.22949,26.2982385 115.909344,26.4030552 115.692871,26.6126916 C115.476399,26.8223281 115.368164,27.0798125 115.368164,27.3851526 C115.368164,27.6358049 115.449055,27.8351844 115.61084,27.9832971 C115.772625,28.1314098 115.997069,28.2054651 116.28418,28.2054651 Z M130.051758,26.9203088 L130.092773,26.9203088 L132.649414,19.5853479 L135.253906,19.5853479 L135.253906,29.5384729 L133.257812,29.5384729 L133.257812,22.743551 L133.216797,22.7367151 L130.755859,29.5384729 L129.402344,29.5384729 L126.941406,22.7230432 L126.900391,22.7298791 L126.900391,29.5384729 L124.904297,29.5384729 L124.904297,19.5853479 L127.522461,19.5853479 L130.051758,26.9203088 Z M139.150391,29.5384729 L137.154297,29.5384729 L137.154297,27.7884729 L139.150391,27.7884729 L139.150391,29.5384729 Z M150.313477,31.9857385 L148.317383,31.9857385 L148.317383,29.5384729 L142.329102,29.5384729 L142.329102,31.9857385 L140.339844,31.9857385 L140.339844,28.0072229 L140.920898,28.0072229 C141.440432,28.0072229 141.814126,27.6608722 142.041992,26.9681604 C142.269858,26.2754486 142.417968,25.172595 142.486328,23.6595666 L142.711914,19.5853479 L149.130859,19.5853479 L149.130859,28.0072229 L150.313477,28.0072229 L150.313477,31.9857385 Z M144.482422,23.6595666 C144.436849,24.62116 144.332032,25.4642505 144.167969,26.1888635 C144.003905,26.9134765 143.7806,27.5195902 143.498047,28.0072229 L147.141602,28.0072229 L147.141602,21.1234338 L144.619141,21.1234338 L144.482422,23.6595666 Z M153.239258,29.5384729 L151.243164,29.5384729 L151.243164,27.7884729 L153.239258,27.7884729 L153.239258,29.5384729 Z M166.200195,26.243551 L166.213867,26.2845666 C166.232096,27.3464209 165.908532,28.1781183 165.243164,28.7796838 C164.577796,29.3812493 163.659511,29.6820276 162.488281,29.6820276 C161.294265,29.6820276 160.330407,29.2980796 159.59668,28.5301721 C158.862952,27.7622646 158.496094,26.7699243 158.496094,25.5531213 L158.496094,23.5775354 C158.496094,22.3652897 158.853838,21.3729494 159.569336,20.6004846 C160.284834,19.8280198 161.223627,19.4417932 162.385742,19.4417932 C163.597988,19.4417932 164.545895,19.7380142 165.229492,20.3304651 C165.913089,20.9229159 166.245768,21.756892 166.227539,22.8324182 L166.213867,22.8734338 L164.272461,22.8734338 C164.272461,22.2354098 164.118654,21.7603169 163.811035,21.4481408 C163.503416,21.1359648 163.028324,20.9798791 162.385742,20.9798791 C161.788734,20.9798791 161.322756,21.2202739 160.987793,21.7010705 C160.65283,22.1818672 160.485352,22.802792 160.485352,23.5638635 L160.485352,25.5531213 C160.485352,26.3187501 160.661945,26.9430928 161.015137,27.4261682 C161.368329,27.9092435 161.859372,28.1507776 162.488281,28.1507776 C163.085289,28.1507776 163.53076,27.9946919 163.824707,27.6825158 C164.118654,27.3703398 164.265625,26.8906896 164.265625,26.243551 L166.200195,26.243551 Z M173.753906,23.6664026 L171.388672,23.6664026 L171.388672,29.5384729 L169.385742,29.5384729 L169.385742,23.6664026 L167.054688,23.6664026 L167.054688,22.1419885 L173.753906,22.1419885 L173.753906,23.6664026 Z M181.478516,26.0453088 C181.478516,27.1390643 181.225588,28.0186128 180.719727,28.6839807 C180.213865,29.3493486 179.507492,29.6820276 178.600586,29.6820276 C178.213214,29.6820276 177.869142,29.6102509 177.568359,29.4666955 C177.267577,29.3231401 177.010092,29.1123675 176.795898,28.8343713 L176.795898,32.3822229 L174.806641,32.3822229 L174.806641,22.1419885 L176.604492,22.1419885 L176.720703,23.0169885 C176.939454,22.6934192 177.202635,22.4439099 177.510254,22.2684533 C177.817873,22.0929967 178.176756,22.0052697 178.586914,22.0052697 C179.502934,22.0052697 180.213865,22.3630136 180.719727,23.0785119 C181.225588,23.7940103 181.478516,24.7350816 181.478516,25.9017541 L181.478516,26.0453088 Z M179.482422,25.9017541 C179.482422,25.204485 179.366212,24.6393865 179.133789,24.2064416 C178.901366,23.7734967 178.545901,23.5570276 178.067383,23.5570276 C177.7666,23.5570276 177.510255,23.6185504 177.29834,23.7415979 C177.086425,23.8646454 176.918946,24.0400993 176.795898,24.2679651 L176.795898,27.5081994 C176.918946,27.7178359 177.086425,27.8773395 177.29834,27.9867151 C177.510255,28.0960906 177.771157,28.1507776 178.081055,28.1507776 C178.56413,28.1507776 178.918456,27.9616518 179.144043,27.5833947 C179.36963,27.2051376 179.482422,26.6924475 179.482422,26.0453088 L179.482422,25.9017541 Z M187.070312,29.5384729 C186.997395,29.3698522 186.934733,29.1921196 186.882324,29.0052697 C186.829915,28.8184199 186.792318,28.6270155 186.769531,28.431051 C186.564452,28.7910788 186.293296,29.0895785 185.956055,29.3265588 C185.618813,29.5635392 185.217776,29.6820276 184.75293,29.6820276 C183.978186,29.6820276 183.381187,29.482648 182.961914,29.083883 C182.542641,28.685118 182.333008,28.1416664 182.333008,27.4535119 C182.333008,26.7288989 182.612139,26.1672184 183.17041,25.7684533 C183.728681,25.3696883 184.543289,25.1703088 185.614258,25.1703088 L186.735352,25.1703088 L186.735352,24.5824182 C186.735352,24.2269477 186.641928,23.9512343 186.455078,23.7552697 C186.268228,23.5593052 185.990236,23.4613244 185.621094,23.4613244 C185.297524,23.4613244 185.048015,23.5399369 184.872559,23.6971643 C184.697102,23.8543916 184.609375,24.0697215 184.609375,24.3431604 L182.688477,24.3431604 L182.674805,24.3021447 C182.642903,23.6777927 182.915199,23.1388983 183.491699,22.6854455 C184.068199,22.2319927 184.821284,22.0052697 185.750977,22.0052697 C186.639653,22.0052697 187.358558,22.2285748 187.907715,22.6751916 C188.456871,23.1218084 188.731445,23.7621015 188.731445,24.5960901 L188.731445,27.6517541 C188.731445,27.99811 188.757649,28.3239531 188.810059,28.6292932 C188.862468,28.9346333 188.945637,29.2376901 189.05957,29.5384729 L187.070312,29.5384729 Z M185.245117,28.2054651 C185.591473,28.2054651 185.901366,28.1188774 186.174805,27.9456994 C186.448244,27.7725215 186.635091,27.5720027 186.735352,27.3441369 L186.735352,26.2982385 L185.614258,26.2982385 C185.190428,26.2982385 184.870281,26.4030552 184.653809,26.6126916 C184.437336,26.8223281 184.329102,27.0798125 184.329102,27.3851526 C184.329102,27.6358049 184.409993,27.8351844 184.571777,27.9832971 C184.733562,28.1314098 184.958006,28.2054651 185.245117,28.2054651 Z M196.674805,26.7494104 L196.121094,26.7494104 L196.121094,29.5384729 L194.138672,29.5384729 L194.138672,26.7494104 L193.598633,26.7494104 L192.135742,29.5384729 L189.579102,29.5384729 L191.999023,25.5326135 L189.702148,22.1419885 L192.217773,22.1419885 L193.742188,24.931051 L194.138672,24.931051 L194.138672,22.1419885 L196.121094,22.1419885 L196.121094,24.931051 L196.538086,24.931051 L198.055664,22.1419885 L200.578125,22.1419885 L198.274414,25.5394494 L200.6875,29.5384729 L198.137695,29.5384729 L196.674805,26.7494104 Z M204.789063,29.6820276 C203.686192,29.6820276 202.824873,29.343652 202.205078,28.6668908 C201.585283,27.9901296 201.275391,27.1185563 201.275391,26.0521447 L201.275391,25.7787072 C201.275391,24.6712798 201.576169,23.7643879 202.177734,23.0580041 C202.7793,22.3516204 203.60644,22.0007124 204.65918,22.0052697 C205.652674,22.0052697 206.414874,22.3094659 206.945801,22.9178674 C207.476728,23.5262689 207.742188,24.3454339 207.742188,25.3753869 L207.742188,26.4076135 L203.333008,26.4076135 L203.3125,26.4486291 C203.344401,26.954491 203.498208,27.3646432 203.773926,27.6790979 C204.049643,27.9935526 204.458656,28.1507776 205.000977,28.1507776 C205.447593,28.1507776 205.826984,28.1052051 206.13916,28.0140588 C206.451336,27.9229125 206.773761,27.7839165 207.106445,27.5970666 L207.646484,28.8275354 C207.350259,29.069073 206.949221,29.2718705 206.443359,29.4359338 C205.937497,29.5999971 205.386071,29.6820276 204.789063,29.6820276 Z M204.65918,23.5433557 C204.258136,23.5433557 203.949383,23.6812124 203.73291,23.9569299 C203.516438,24.2326474 203.385417,24.5983664 203.339844,25.0540979 L203.353516,25.0882776 L205.787109,25.0882776 L205.787109,24.9378869 C205.787109,24.5049421 205.698243,24.1642879 205.520508,23.9159143 C205.342773,23.6675406 205.055666,23.5433557 204.65918,23.5433557 Z M211.994141,28.1507776 C212.340497,28.1507776 212.61621,28.0471002 212.821289,27.8397424 C213.026368,27.6323846 213.128906,27.3555319 213.128906,27.009176 L214.947266,27.009176 L214.960938,27.0501916 C214.979167,27.7975912 214.701175,28.4230732 214.126953,28.9266565 C213.552732,29.4302397 212.841801,29.6820276 211.994141,29.6820276 C210.900385,29.6820276 210.055016,29.3322589 209.458008,28.6327112 C208.861,27.9331634 208.5625,27.0388038 208.5625,25.9496057 L208.5625,25.7445276 C208.5625,24.6598867 208.85986,23.7655272 209.45459,23.0614221 C210.049319,22.357317 210.891271,22.0052697 211.980469,22.0052697 C212.882817,22.0052697 213.609698,22.2650328 214.161133,22.7845666 C214.712568,23.3041005 214.979167,23.9876874 214.960938,24.8353479 L214.947266,24.8763635 L213.128906,24.8763635 C213.128906,24.4935491 213.027508,24.1756812 212.824707,23.9227502 C212.621907,23.6698193 212.340497,23.5433557 211.980469,23.5433557 C211.465492,23.5433557 211.099773,23.7495711 210.883301,24.162008 C210.666828,24.574445 210.558594,25.1019462 210.558594,25.7445276 L210.558594,25.9496057 C210.558594,26.605859 210.666828,27.1367781 210.883301,27.5423791 C211.099773,27.9479801 211.470049,28.1507776 211.994141,28.1507776 Z M219.000977,26.7699182 L218.235352,26.7699182 L218.235352,29.5384729 L216.239258,29.5384729 L216.239258,22.1419885 L218.235352,22.1419885 L218.235352,24.9583947 L218.830078,24.9583947 L220.525391,22.1419885 L223.047852,22.1419885 L220.600586,25.5736291 L223.266602,29.5384729 L220.607422,29.5384729 L219.000977,26.7699182 Z M228.461914,29.5384729 C228.388997,29.3698522 228.326335,29.1921196 228.273926,29.0052697 C228.221517,28.8184199 228.183919,28.6270155 228.161133,28.431051 C227.956054,28.7910788 227.684898,29.0895785 227.347656,29.3265588 C227.010415,29.5635392 226.609377,29.6820276 226.144531,29.6820276 C225.369788,29.6820276 224.772789,29.482648 224.353516,29.083883 C223.934243,28.685118 223.724609,28.1416664 223.724609,27.4535119 C223.724609,26.7288989 224.003741,26.1672184 224.562012,25.7684533 C225.120283,25.3696883 225.93489,25.1703088 227.005859,25.1703088 L228.126953,25.1703088 L228.126953,24.5824182 C228.126953,24.2269477 228.03353,23.9512343 227.84668,23.7552697 C227.65983,23.5593052 227.381838,23.4613244 227.012695,23.4613244 C226.689126,23.4613244 226.439617,23.5399369 226.26416,23.6971643 C226.088704,23.8543916 226.000977,24.0697215 226.000977,24.3431604 L224.080078,24.3431604 L224.066406,24.3021447 C224.034505,23.6777927 224.306801,23.1388983 224.883301,22.6854455 C225.459801,22.2319927 226.212886,22.0052697 227.142578,22.0052697 C228.031254,22.0052697 228.75016,22.2285748 229.299316,22.6751916 C229.848473,23.1218084 230.123047,23.7621015 230.123047,24.5960901 L230.123047,27.6517541 C230.123047,27.99811 230.149251,28.3239531 230.20166,28.6292932 C230.254069,28.9346333 230.337239,29.2376901 230.451172,29.5384729 L228.461914,29.5384729 Z M226.636719,28.2054651 C226.983075,28.2054651 227.292967,28.1188774 227.566406,27.9456994 C227.839845,27.7725215 228.026692,27.5720027 228.126953,27.3441369 L228.126953,26.2982385 L227.005859,26.2982385 C226.582029,26.2982385 226.261883,26.4030552 226.04541,26.6126916 C225.828938,26.8223281 225.720703,27.0798125 225.720703,27.3851526 C225.720703,27.6358049 225.801594,27.8351844 225.963379,27.9832971 C226.125164,28.1314098 226.349608,28.2054651 226.636719,28.2054651 Z M233.383789,21.3558557 L232.686523,23.3040979 L231.702148,23.3040979 L231.702148,19.5853479 L233.383789,19.5853479 L233.383789,21.3558557 Z M235.680664,21.3558557 L234.983398,23.3040979 L233.999023,23.3040979 L233.999023,19.5853479 L235.680664,19.5853479 L235.680664,21.3558557 Z M249.304688,29.5384729 L247.308594,29.5384729 L247.308594,25.4027307 L243.254883,25.4027307 L243.254883,29.5384729 L241.258789,29.5384729 L241.258789,19.5853479 L243.254883,19.5853479 L243.254883,23.8646447 L247.308594,23.8646447 L247.308594,19.5853479 L249.304688,19.5853479 L249.304688,29.5384729 Z M256.325195,27.3919885 L253.098633,27.3919885 L252.428711,29.5384729 L250.34375,29.5384729 L253.700195,19.5853479 L255.744141,19.5853479 L259.086914,29.5384729 L257.001953,29.5384729 L256.325195,27.3919885 Z M253.59082,25.8265588 L255.839844,25.8265588 L254.739258,22.3197229 L254.698242,22.3197229 L253.59082,25.8265588 Z M265.191406,26.9203088 L265.232422,26.9203088 L267.789062,19.5853479 L270.393555,19.5853479 L270.393555,29.5384729 L268.397461,29.5384729 L268.397461,22.743551 L268.356445,22.7367151 L265.895508,29.5384729 L264.541992,29.5384729 L262.081055,22.7230432 L262.040039,22.7298791 L262.040039,29.5384729 L260.043945,29.5384729 L260.043945,19.5853479 L262.662109,19.5853479 L265.191406,26.9203088 Z M280.271484,29.5384729 L278.275391,29.5384729 L278.275391,25.4027307 L274.22168,25.4027307 L274.22168,29.5384729 L272.225586,29.5384729 L272.225586,19.5853479 L274.22168,19.5853479 L274.22168,23.8646447 L278.275391,23.8646447 L278.275391,19.5853479 L280.271484,19.5853479 L280.271484,29.5384729 Z M285.541992,24.0081994 L285.719727,24.6097619 L285.760742,24.6165979 L287.852539,19.5853479 L289.964844,19.5853479 L286.334961,27.6517541 C286.04785,28.2943355 285.701499,28.7933539 285.295898,29.1488244 C284.890297,29.504295 284.32292,29.6820276 283.59375,29.6820276 C283.320311,29.6820276 283.076498,29.658102 282.862305,29.6102502 C282.648111,29.5623984 282.40202,29.4929004 282.124023,29.4017541 L282.356445,27.9730432 C282.561524,28.0322883 282.742675,28.0767214 282.899902,28.106344 C283.05713,28.1359665 283.215494,28.1507776 283.375,28.1507776 C283.7487,28.1507776 284.035806,28.0698864 284.236328,27.9081018 C284.43685,27.7463171 284.594075,27.5059224 284.708008,27.1869104 L284.858398,26.8109338 L281.351562,19.5853479 L283.504883,19.5853479 L285.541992,24.0081994 Z" id="ДУ-ННЦ-“Інститут-кар" fill="#5C5D61"></path>
        </g>
    </g>
</svg>