<?xml version="1.0" encoding="UTF-8"?>
<svg width="111px" height="35px" viewBox="0 0 111 35" version="1.1" xmlns="http://www.w3.org/2000/svg" xmlns:xlink="http://www.w3.org/1999/xlink">
    <!-- Generator: Sketch 48.1 (47250) - http://www.bohemiancoding.com/sketch -->
    <title>Artboard</title>
    <desc>Created with Sketch.</desc>
    <defs></defs>
    <g id="Page-1" stroke="none" stroke-width="1" fill="none" fill-rule="evenodd">
        <g id="Artboard" fill="#FF4400">
            <path d="M1.94677734,8 L0.520996094,8 L0.520996094,0.890625 L1.94677734,0.890625 L1.94677734,8 Z M9.10498047,8 L7.67919922,8 L7.67919922,5.04589844 L4.78369141,5.04589844 L4.78369141,8 L3.35791016,8 L3.35791016,0.890625 L4.78369141,0.890625 L4.78369141,3.94726562 L7.67919922,3.94726562 L7.67919922,0.890625 L9.10498047,0.890625 L9.10498047,8 Z M15.7456055,5.64648438 L15.7553711,5.67578125 C15.768392,6.43424858 15.5372745,7.02831816 15.0620117,7.45800781 C14.5867489,7.88769746 13.930831,8.10253906 13.0942383,8.10253906 C12.2413694,8.10253906 11.5528998,7.8282905 11.0288086,7.27978516 C10.5047174,6.73127981 10.2426758,6.02246528 10.2426758,5.15332031 L10.2426758,3.7421875 C10.2426758,2.87629775 10.4982071,2.16748323 11.0092773,1.61572266 C11.5203476,1.06396208 12.1909138,0.788085937 13.0209961,0.788085937 C13.8868858,0.788085937 14.5639624,0.999672363 15.0522461,1.42285156 C15.5405298,1.84603076 15.7781576,2.44172793 15.7651367,3.20996094 L15.7553711,3.23925781 L14.3686523,3.23925781 C14.3686523,2.78352637 14.2587902,2.44417429 14.0390625,2.22119141 C13.8193348,1.99820852 13.4799828,1.88671875 13.0209961,1.88671875 C12.5945617,1.88671875 12.2617199,2.05842927 12.0224609,2.40185547 C11.7832019,2.74528167 11.6635742,3.18879937 11.6635742,3.73242188 L11.6635742,5.15332031 C11.6635742,5.70019805 11.7897123,6.14615713 12.0419922,6.49121094 C12.2942721,6.83626475 12.6450173,7.00878906 13.0942383,7.00878906 C13.5206727,7.00878906 13.8388661,6.89729929 14.0488281,6.67431641 C14.2587901,6.45133352 14.3637695,6.10872627 14.3637695,5.64648438 L15.7456055,5.64648438 Z M21.7319336,1.98925781 L19.7006836,1.98925781 L19.7006836,8 L18.2749023,8 L18.2749023,1.98925781 L16.2729492,1.98925781 L16.2729492,0.890625 L21.7319336,0.890625 L21.7319336,1.98925781 Z M26.7856445,0.890625 L28.2114258,0.890625 L28.2114258,8 L26.7856445,8 L26.7856445,3.24902344 L26.7563477,3.24414062 L23.8852539,8 L22.4643555,8 L22.4643555,0.890625 L23.8852539,0.890625 L23.8852539,5.63671875 L23.9145508,5.64160156 L26.7856445,0.890625 Z M34.456543,1.98925781 L32.425293,1.98925781 L32.425293,8 L30.9995117,8 L30.9995117,1.98925781 L28.9975586,1.98925781 L28.9975586,0.890625 L34.456543,0.890625 L34.456543,1.98925781 Z M37.6938477,4.04980469 L37.8208008,4.47949219 L37.8500977,4.484375 L39.3442383,0.890625 L40.8530273,0.890625 L38.2602539,6.65234375 C38.0551748,7.11133042 37.8077814,7.46777217 37.5180664,7.72167969 C37.2283514,7.97558721 36.823082,8.10253906 36.3022461,8.10253906 C36.1069326,8.10253906 35.9327807,8.08544939 35.7797852,8.05126953 C35.6267896,8.01708967 35.4510101,7.96744824 35.2524414,7.90234375 L35.418457,6.88183594 C35.5649421,6.92415386 35.6943354,6.95589182 35.8066406,6.97705078 C35.9189459,6.99820974 36.0320632,7.00878906 36.1459961,7.00878906 C36.4129245,7.00878906 36.6180006,6.95100969 36.7612305,6.83544922 C36.9044604,6.71988875 37.0167639,6.54817822 37.0981445,6.3203125 L37.2055664,6.05175781 L34.7006836,0.890625 L36.2387695,0.890625 L37.6938477,4.04980469 Z M46.590332,1.98925781 L44.559082,1.98925781 L44.559082,8 L43.1333008,8 L43.1333008,1.98925781 L41.1313477,1.98925781 L41.1313477,0.890625 L46.590332,0.890625 L46.590332,1.98925781 Z M51.8100586,5.03125 L51.2875977,5.03125 L51.2875977,8 L49.8618164,8 L49.8618164,0.890625 L51.2875977,0.890625 L51.2875977,3.79589844 L51.6879883,3.79589844 L53.6362305,0.890625 L55.3989258,0.890625 L52.9379883,4.19628906 L55.5893555,8 L53.7729492,8 L51.8100586,5.03125 Z M59.9399414,6.46679688 L57.6352539,6.46679688 L57.1567383,8 L55.6674805,8 L58.0649414,0.890625 L59.5249023,0.890625 L61.9125977,8 L60.4233398,8 L59.9399414,6.46679688 Z M57.9868164,5.34863281 L59.5932617,5.34863281 L58.8071289,2.84375 L58.777832,2.84375 L57.9868164,5.34863281 Z M64.0219727,5.421875 L64.0219727,8 L62.5961914,8 L62.5961914,0.890625 L65.315918,0.890625 C66.1329793,0.890625 66.7758766,1.09895625 67.2446289,1.515625 C67.7133812,1.93229375 67.9477539,2.48079087 67.9477539,3.16113281 C67.9477539,3.84147476 67.7133812,4.38834429 67.2446289,4.80175781 C66.7758766,5.21517134 66.1329793,5.421875 65.315918,5.421875 L64.0219727,5.421875 Z M64.0219727,4.32324219 L65.315918,4.32324219 C65.7130554,4.32324219 66.0141591,4.21500759 66.2192383,3.99853516 C66.4243174,3.78206272 66.5268555,3.50618657 66.5268555,3.17089844 C66.5268555,2.82909985 66.4251312,2.54671335 66.2216797,2.32373047 C66.0182281,2.10074758 65.7163106,1.98925781 65.315918,1.98925781 L64.0219727,1.98925781 L64.0219727,4.32324219 Z M75.5063477,9.74804688 L74.0805664,9.74804688 L74.0805664,8 L69.8032227,8 L69.8032227,9.74804688 L68.3823242,9.74804688 L68.3823242,6.90625 L68.7973633,6.90625 C69.1684589,6.90625 69.4353833,6.65885664 69.5981445,6.1640625 C69.7609058,5.66926836 69.866699,4.88151582 69.9155273,3.80078125 L70.0766602,0.890625 L74.6616211,0.890625 L74.6616211,6.90625 L75.5063477,6.90625 L75.5063477,9.74804688 Z M71.3413086,3.80078125 C71.3087563,4.48763364 71.2338873,5.08984116 71.1166992,5.60742188 C70.9995111,6.12500259 70.8400075,6.55794097 70.6381836,6.90625 L73.2407227,6.90625 L73.2407227,1.98925781 L71.4389648,1.98925781 L71.3413086,3.80078125 Z M77.6450195,8 L76.2192383,8 L76.2192383,0.890625 L77.6450195,0.890625 L77.6450195,8 Z M84.8081055,5.08496094 C84.8081055,5.96061636 84.5330431,6.68245159 83.9829102,7.25048828 C83.4327772,7.81852498 82.7166385,8.10253906 81.8344727,8.10253906 C80.955562,8.10253906 80.2426785,7.81771118 79.6958008,7.24804688 C79.148923,6.67838257 78.8754883,5.95736113 78.8754883,5.08496094 L78.8754883,3.80566406 C78.8754883,2.93651909 79.1481093,2.21631145 79.6933594,1.64501953 C80.2386095,1.07372761 80.9490516,0.788085937 81.824707,0.788085937 C82.7068729,0.788085937 83.4246392,1.07372761 83.9780273,1.64501953 C84.5314155,2.21631145 84.8081055,2.93651909 84.8081055,3.80566406 L84.8081055,5.08496094 Z M83.387207,3.79589844 C83.387207,3.24251025 83.2488621,2.78841323 82.972168,2.43359375 C82.6954739,2.07877427 82.3129907,1.90136719 81.824707,1.90136719 C81.3429338,1.90136719 80.9677748,2.07877427 80.6992188,2.43359375 C80.4306627,2.78841323 80.2963867,3.24251025 80.2963867,3.79589844 L80.2963867,5.08496094 C80.2963867,5.64811479 80.4314765,6.10709458 80.7016602,6.46191406 C80.9718438,6.81673354 81.3494442,6.99414062 81.8344727,6.99414062 C82.3227563,6.99414062 82.7036119,6.81673354 82.9770508,6.46191406 C83.2504896,6.10709458 83.387207,5.64811479 83.387207,5.08496094 L83.387207,3.79589844 Z M91.6831055,0.890625 L91.6831055,8 L90.2573242,8 L90.2573242,1.98925781 L88.2358398,1.98925781 L88.2358398,4.12792969 C88.2358398,5.50163447 88.0283224,6.49039412 87.6132812,7.09423828 C87.1982401,7.69808245 86.5594119,8 85.6967773,8 L85.4868164,8 L85.4868164,6.90625 L85.6821289,6.90625 C86.1280947,6.90625 86.4275708,6.70768428 86.5805664,6.31054688 C86.733562,5.91340947 86.8100586,5.18587769 86.8100586,4.12792969 L86.8100586,0.890625 L91.6831055,0.890625 Z M98.7387695,5.08496094 C98.7387695,5.96061636 98.4637072,6.68245159 97.9135742,7.25048828 C97.3634413,7.81852498 96.6473026,8.10253906 95.7651367,8.10253906 C94.8862261,8.10253906 94.1733426,7.81771118 93.6264648,7.24804688 C93.0795871,6.67838257 92.8061523,5.95736113 92.8061523,5.08496094 L92.8061523,3.80566406 C92.8061523,2.93651909 93.0787733,2.21631145 93.6240234,1.64501953 C94.1692736,1.07372761 94.8797157,0.788085937 95.7553711,0.788085937 C96.637537,0.788085937 97.3553032,1.07372761 97.9086914,1.64501953 C98.4620796,2.21631145 98.7387695,2.93651909 98.7387695,3.80566406 L98.7387695,5.08496094 Z M97.3178711,3.79589844 C97.3178711,3.24251025 97.1795261,2.78841323 96.902832,2.43359375 C96.6261379,2.07877427 96.2436548,1.90136719 95.7553711,1.90136719 C95.2735979,1.90136719 94.8984388,2.07877427 94.6298828,2.43359375 C94.3613268,2.78841323 94.2270508,3.24251025 94.2270508,3.79589844 L94.2270508,5.08496094 C94.2270508,5.64811479 94.3621406,6.10709458 94.6323242,6.46191406 C94.9025079,6.81673354 95.2801083,6.99414062 95.7651367,6.99414062 C96.2534204,6.99414062 96.634276,6.81673354 96.9077148,6.46191406 C97.1811537,6.10709458 97.3178711,5.64811479 97.3178711,5.08496094 L97.3178711,3.79589844 Z M104.490723,1.98925781 L101.282715,1.98925781 L101.282715,8 L99.8569336,8 L99.8569336,0.890625 L104.490723,0.890625 L104.490723,1.98925781 Z M106.941895,8 L105.516113,8 L105.516113,0.890625 L106.941895,0.890625 L106.941895,8 Z M109.876465,8 L108.450684,8 L108.450684,0.890625 L109.876465,0.890625 L109.876465,8 Z M111.038574,0.182617188 L109.739746,0.182617188 L109.739746,-0.813476562 L111.038574,-0.813476562 L111.038574,0.182617188 Z M108.597168,0.182617188 L107.29834,0.182617188 L107.29834,-0.813476562 L108.597168,-0.813476562 L108.597168,0.182617188 Z M1.94677734,18 L0.520996094,18 L0.520996094,10.890625 L1.94677734,10.890625 L1.94677734,18 Z M7.03466797,16.1298828 L7.06396484,16.1298828 L8.89013672,10.890625 L10.7504883,10.890625 L10.7504883,18 L9.32470703,18 L9.32470703,13.1464844 L9.29541016,13.1416016 L7.53759766,18 L6.57080078,18 L4.81298828,13.1318359 L4.78369141,13.1367188 L4.78369141,18 L3.35791016,18 L3.35791016,10.890625 L5.22802734,10.890625 L7.03466797,16.1298828 Z M16.121582,14.875 L13.4848633,14.875 L13.4848633,16.90625 L16.6196289,16.90625 L16.6196289,18 L12.059082,18 L12.059082,10.890625 L16.6098633,10.890625 L16.6098633,11.9892578 L13.4848633,11.9892578 L13.4848633,13.7763672 L16.121582,13.7763672 L16.121582,14.875 Z M23.3676758,18 L21.9418945,18 L21.9418945,15.0458984 L19.0463867,15.0458984 L19.0463867,18 L17.6206055,18 L17.6206055,10.890625 L19.0463867,10.890625 L19.0463867,13.9472656 L21.9418945,13.9472656 L21.9418945,10.890625 L23.3676758,10.890625 L23.3676758,18 Z M26.199707,18 L24.7739258,18 L24.7739258,10.890625 L26.199707,10.890625 L26.199707,18 Z M33.8071289,16.4667969 L31.5024414,16.4667969 L31.0239258,18 L29.534668,18 L31.9321289,10.890625 L33.3920898,10.890625 L35.7797852,18 L34.2905273,18 L33.8071289,16.4667969 Z M31.8540039,15.3486328 L33.4604492,15.3486328 L32.6743164,12.84375 L32.6450195,12.84375 L31.8540039,15.3486328 Z M38.4116211,15.03125 L37.8891602,15.03125 L37.8891602,18 L36.4633789,18 L36.4633789,10.890625 L37.8891602,10.890625 L37.8891602,13.7958984 L38.2895508,13.7958984 L40.237793,10.890625 L42.0004883,10.890625 L39.5395508,14.1962891 L42.190918,18 L40.3745117,18 L38.4116211,15.03125 Z M46.5415039,16.4667969 L44.2368164,16.4667969 L43.7583008,18 L42.269043,18 L44.6665039,10.890625 L46.1264648,10.890625 L48.5141602,18 L47.0249023,18 L46.5415039,16.4667969 Z M44.5883789,15.3486328 L46.1948242,15.3486328 L45.4086914,12.84375 L45.3793945,12.84375 L44.5883789,15.3486328 Z M55.7358398,19.7480469 L54.3100586,19.7480469 L54.3100586,18 L50.0327148,18 L50.0327148,19.7480469 L48.6118164,19.7480469 L48.6118164,16.90625 L49.0268555,16.90625 C49.3979511,16.90625 49.6648755,16.6588566 49.8276367,16.1640625 C49.9903979,15.6692684 50.0961912,14.8815158 50.1450195,13.8007812 L50.3061523,10.890625 L54.8911133,10.890625 L54.8911133,16.90625 L55.7358398,16.90625 L55.7358398,19.7480469 Z M51.5708008,13.8007812 C51.5382485,14.4876336 51.4633795,15.0898412 51.3461914,15.6074219 C51.2290033,16.1250026 51.0694997,16.557941 50.8676758,16.90625 L53.4702148,16.90625 L53.4702148,11.9892578 L51.668457,11.9892578 L51.5708008,13.8007812 Z M60.4135742,14.875 L57.7768555,14.875 L57.7768555,16.90625 L60.9116211,16.90625 L60.9116211,18 L56.3510742,18 L56.3510742,10.890625 L60.9018555,10.890625 L60.9018555,11.9892578 L57.7768555,11.9892578 L57.7768555,13.7763672 L60.4135742,13.7763672 L60.4135742,14.875 Z M65.5893555,16.1298828 L65.6186523,16.1298828 L67.4448242,10.890625 L69.3051758,10.890625 L69.3051758,18 L67.8793945,18 L67.8793945,13.1464844 L67.8500977,13.1416016 L66.0922852,18 L65.1254883,18 L63.3676758,13.1318359 L63.3383789,13.1367188 L63.3383789,18 L61.9125977,18 L61.9125977,10.890625 L63.7827148,10.890625 L65.5893555,16.1298828 Z M72.137207,18 L70.7114258,18 L70.7114258,10.890625 L72.137207,10.890625 L72.137207,18 Z M75.496582,15.03125 L74.9741211,15.03125 L74.9741211,18 L73.5483398,18 L73.5483398,10.890625 L74.9741211,10.890625 L74.9741211,13.7958984 L75.3745117,13.7958984 L77.3227539,10.890625 L79.0854492,10.890625 L76.6245117,14.1962891 L79.2758789,18 L77.4594727,18 L75.496582,15.03125 Z M83.6264648,16.4667969 L81.3217773,16.4667969 L80.8432617,18 L79.3540039,18 L81.7514648,10.890625 L83.2114258,10.890625 L85.5991211,18 L84.1098633,18 L83.6264648,16.4667969 Z M81.6733398,15.3486328 L83.2797852,15.3486328 L82.4936523,12.84375 L82.4643555,12.84375 L81.6733398,15.3486328 Z M92.449707,16.1298828 L92.4790039,16.1298828 L94.3051758,10.890625 L96.1655273,10.890625 L96.1655273,18 L94.7397461,18 L94.7397461,13.1464844 L94.7104492,13.1416016 L92.9526367,18 L91.9858398,18 L90.2280273,13.1318359 L90.1987305,13.1367188 L90.1987305,18 L88.7729492,18 L88.7729492,10.890625 L90.6430664,10.890625 L92.449707,16.1298828 Z M98.9487305,18 L97.5229492,18 L97.5229492,16.75 L98.9487305,16.75 L98.9487305,18 Z M106.922363,19.7480469 L105.496582,19.7480469 L105.496582,18 L101.219238,18 L101.219238,19.7480469 L99.7983398,19.7480469 L99.7983398,16.90625 L100.213379,16.90625 C100.584475,16.90625 100.851399,16.6588566 101.01416,16.1640625 C101.176921,15.6692684 101.282715,14.8815158 101.331543,13.8007812 L101.492676,10.890625 L106.077637,10.890625 L106.077637,16.90625 L106.922363,16.90625 L106.922363,19.7480469 Z M102.757324,13.8007812 C102.724772,14.4876336 102.649903,15.0898412 102.532715,15.6074219 C102.415527,16.1250026 102.256023,16.557941 102.054199,16.90625 L104.656738,16.90625 L104.656738,11.9892578 L102.85498,11.9892578 L102.757324,13.8007812 Z M109.012207,18 L107.586426,18 L107.586426,16.75 L109.012207,16.75 L109.012207,18 Z" id="Інститут-кардіології"></path>
            <path d="M11.0747106,29.6240224 L11.092917,29.6786414 C11.1171922,31.0926754 10.6863128,32.2002176 9.80026577,33.0013012 C8.91421874,33.8023848 7.6913708,34.2029206 6.13168528,34.2029206 C4.54165568,34.2029206 3.2581205,33.6916306 2.28104125,32.6690352 C1.30396199,31.6464398 0.815429688,30.3249751 0.815429688,28.7046015 L0.815429688,26.0737832 C0.815429688,24.4594783 1.29182454,23.1380136 2.24462854,22.1093494 C3.19743253,21.0806853 4.44758973,20.5663609 5.99513762,20.5663609 C7.60944248,20.5663609 8.87173712,20.9608279 9.78205941,21.7497739 C10.6923817,22.5387199 11.1353986,23.6492965 11.1111233,25.0815369 L11.092917,25.1361559 L8.50761458,25.1361559 C8.50761458,24.2865218 8.30279514,23.6538573 7.8931501,23.2381434 C7.48350507,22.8224296 6.85084057,22.6145758 5.99513762,22.6145758 C5.20012282,22.6145758 4.57959577,22.934701 4.13353784,23.574961 C3.68747992,24.215221 3.46445431,25.0420847 3.46445431,26.0555768 L3.46445431,28.7046015 C3.46445431,29.7241624 3.69961737,30.5555776 4.16995055,31.1988721 C4.64028374,31.8421665 5.29418877,32.1638089 6.13168528,32.1638089 C6.92670008,32.1638089 7.51991787,31.9559551 7.91135646,31.5402412 C8.30279504,31.1245274 8.4985114,30.4857941 8.4985114,29.6240224 L11.0747106,29.6240224 Z M22.2352061,22.8057425 L18.4482843,22.8057425 L18.4482843,34.0117539 L15.7901565,34.0117539 L15.7901565,22.8057425 L12.0578538,22.8057425 L12.0578538,20.7575276 L22.2352061,20.7575276 L22.2352061,22.8057425 Z M26.3498423,29.2052762 L26.3498423,34.0117539 L23.6917145,34.0117539 L23.6917145,20.7575276 L28.7621843,20.7575276 C30.2854569,20.7575276 31.4840299,21.1459259 32.3579393,21.9227343 C33.2318487,22.6995427 33.6687969,23.7221227 33.6687969,24.9905051 C33.6687969,26.2588875 33.2318487,27.2784331 32.3579393,28.0491727 C31.4840299,28.8199122 30.2854569,29.2052762 28.7621843,29.2052762 L26.3498423,29.2052762 Z M26.3498423,27.1570613 L28.7621843,27.1570613 C29.5025797,27.1570613 30.0639367,26.9552762 30.4462721,26.5517 C30.8286074,26.1481238 31.0197723,25.6337994 31.0197723,25.0087114 C31.0197723,24.3714858 30.8301246,23.845024 30.4508237,23.4293102 C30.0715227,23.0135963 29.5086485,22.8057425 28.7621843,22.8057425 L26.3498423,22.8057425 L26.3498423,27.1570613 Z M42.4806726,31.1533562 L38.1839729,31.1533562 L37.2918615,34.0117539 L34.5153924,34.0117539 L38.9850525,20.7575276 L41.7069025,20.7575276 L46.1583562,34.0117539 L43.3818871,34.0117539 L42.4806726,31.1533562 Z M38.8394016,29.0687286 L41.834347,29.0687286 L40.3687354,24.3987986 L40.3141164,24.3987986 L38.8394016,29.0687286 Z M56.9365183,28.477022 L56.0990259,28.477022 L56.0990259,34.0117539 L53.4500013,34.0117539 L53.4500013,28.477022 L52.5669931,28.477022 L49.5811509,34.0117539 L46.2675944,34.0117539 L50.4459528,26.8657596 L46.4860706,20.7575276 L49.7723177,20.7575276 L52.7763662,26.1739181 L53.4500013,26.1739181 L53.4500013,20.7575276 L56.0990259,20.7575276 L56.0990259,26.1739181 L56.7362484,26.1739181 L59.6765747,20.7575276 L62.9537185,20.7575276 L59.0484554,26.8566564 L63.1721948,34.0117539 L59.8677414,34.0117539 L56.9365183,28.477022 Z M72.0295864,28.1857203 L67.1138706,28.1857203 L67.1138706,31.9726421 L72.9581105,31.9726421 L72.9581105,34.0117539 L64.4557428,34.0117539 L64.4557428,20.7575276 L72.9399041,20.7575276 L72.9399041,22.8057425 L67.1138706,22.8057425 L67.1138706,26.1375054 L72.0295864,26.1375054 L72.0295864,28.1857203 Z M84.7649315,29.6240224 L84.7831379,29.6786414 C84.8074132,31.0926754 84.3765337,32.2002176 83.4904867,33.0013012 C82.6044397,33.8023848 81.3815917,34.2029206 79.8219062,34.2029206 C78.2318766,34.2029206 76.9483414,33.6916306 75.9712622,32.6690352 C74.9941829,31.6464398 74.5056506,30.3249751 74.5056506,28.7046015 L74.5056506,26.0737832 C74.5056506,24.4594783 74.9820455,23.1380136 75.9348495,22.1093494 C76.8876535,21.0806853 78.1378107,20.5663609 79.6853586,20.5663609 C81.2996634,20.5663609 82.5619581,20.9608279 83.4722803,21.7497739 C84.3826026,22.5387199 84.8256195,23.6492965 84.8013442,25.0815369 L84.7831379,25.1361559 L82.1978355,25.1361559 C82.1978355,24.2865218 81.9930161,23.6538573 81.583371,23.2381434 C81.173726,22.8224296 80.5410615,22.6145758 79.6853586,22.6145758 C78.8903438,22.6145758 78.2698167,22.934701 77.8237588,23.574961 C77.3777009,24.215221 77.1546752,25.0420847 77.1546752,26.0555768 L77.1546752,28.7046015 C77.1546752,29.7241624 77.3898383,30.5555776 77.8601715,31.1988721 C78.3305047,31.8421665 78.9844097,32.1638089 79.8219062,32.1638089 C80.616921,32.1638089 81.2101388,31.9559551 81.6015774,31.5402412 C81.993016,31.1245274 82.1887323,30.4857941 82.1887323,29.6240224 L84.7649315,29.6240224 Z M90.3178697,28.477022 L89.3438298,28.477022 L89.3438298,34.0117539 L86.685702,34.0117539 L86.685702,20.7575276 L89.3438298,20.7575276 L89.3438298,26.1739181 L90.0902903,26.1739181 L93.7224581,20.7575276 L97.0087051,20.7575276 L92.4207037,26.9203787 L97.363729,34.0117539 L93.977347,34.0117539 L90.3178697,28.477022 Z M105.47466,31.1533562 L101.17796,31.1533562 L100.285849,34.0117539 L97.5093799,34.0117539 L101.97904,20.7575276 L104.70089,20.7575276 L109.152344,34.0117539 L106.375875,34.0117539 L105.47466,31.1533562 Z M101.833389,29.0687286 L104.828334,29.0687286 L103.362723,24.3987986 L103.308104,24.3987986 L101.833389,29.0687286 Z" id="Стражеска"></path>
        </g>
    </g>
</svg>