<?xml version="1.0" encoding="UTF-8"?>
<svg width="130px" height="33px" viewBox="0 0 130 33" version="1.1" xmlns="http://www.w3.org/2000/svg" xmlns:xlink="http://www.w3.org/1999/xlink">
    <!-- Generator: Sketch 48.1 (47250) - http://www.bohemiancoding.com/sketch -->
    <title>logo</title>
    <desc>Created with Sketch.</desc>
    <defs></defs>
    <g id="Artboard" stroke="none" stroke-width="1" fill="none" fill-rule="evenodd" transform="translate(-73.000000, -168.000000)">
        <g id="logo" transform="translate(73.246094, 168.235352)" fill-rule="nonzero">
            <path d="M16.1225908,10.4404825 C16.4228633,9.7711728 17.3156583,9.27377481 18.0411259,8.97464837 C19.6261522,9.91214043 21.1080314,11.4433011 21.2558755,13.9096616 C19.3098346,12.1401167 17.1838593,11.545302 16.082478,11.353907 C15.9575555,10.9126668 16.037781,10.6295855 16.1225908,10.4404825 Z M4.87497815,8.54830723 C4.55980662,10.652507 5.18671145,13.1578342 5.87779668,15.1199203 C3.45384104,17.3433122 2.85558816,19.6950649 2.76619405,21.1895511 C2.33870684,20.617658 1.90663531,19.8990669 1.47685594,18.9741817 C-1.03420165,13.6002205 2.73066562,15.3915409 3.35986262,11.2117932 C3.58334789,9.71043065 4.21483704,8.8302425 4.93113599,8.31336118 C4.91509089,8.39129451 4.88873109,8.46808175 4.87497815,8.54830723 Z M6.30299173,7.70708575 C6.46917309,7.28991324 6.68348974,6.87847113 6.95167206,6.47963587 L4.86580953,4.18174885 L5.71390748,3.41043814 L7.66109454,5.55360459 C7.9063553,5.26593894 8.17109939,4.98629583 8.44615819,4.71467527 L6.52303877,2.54285686 L7.37113673,1.77154615 L9.28737967,3.93648809 C9.57962964,3.68320478 9.87531785,3.43679794 10.1732982,3.2064362 L8.25476311,1.0976521 L9.10286106,0.325195312 L11.0970373,2.52108137 C12.6855019,1.39677854 14.0309978,0.696524687 14.0309978,0.696524687 L15.1770761,2.98868132 C15.1770761,2.98868132 8.47824838,6.52547901 9.13151302,12.8827754 C8.72465522,13.0947999 8.355618,13.3125548 7.99918764,13.5337479 C7.57399259,13.7950538 7.18088773,14.0643822 6.81987306,14.3360027 C6.2307888,12.5779186 5.74714375,10.4645502 6.00959569,8.7190729 C6.05887705,8.37868764 6.16890057,8.04059454 6.30299173,7.70708575 Z M21.1779422,15.4729124 C22.0730294,16.476877 22.8833067,17.8040357 23.4380086,19.5712885 C25.3210153,25.5435026 25.2224526,29.0080973 23.1984783,30.4922688 C21.4037196,31.8091127 19.6731414,32.1128235 15.2790771,31.5157167 C10.887305,30.919756 5.24057714,30.3226492 3.9844753,22.5579686 C3.9844753,22.5579686 3.97186844,22.4995186 3.9581155,22.4135627 C3.86069884,21.7855118 3.62689887,19.0211709 6.32247507,16.2992349 C6.59294955,16.0253222 6.90009854,15.7525555 7.23360733,15.4820811 C7.48918279,15.2746409 7.75965728,15.0706389 8.05534548,14.866637 C8.6937111,14.4311272 9.41459436,14.00364 10.2604002,13.6002205 C10.2604002,12.8059882 10.3028051,11.0754099 11.0592167,9.39869735 C11.3617814,8.73397192 11.7755157,8.07612297 12.3439705,7.48933087 C13.5714204,6.22176825 15.5186075,5.27969188 18.6164572,5.27969188 L18.6164572,7.57184851 C18.6164572,7.57184851 17.677819,7.79991809 16.7426191,8.33055235 C15.4693261,9.05372777 14.1960331,10.3407737 15.2813693,12.4048608 C15.2813693,12.4048608 18.5878052,12.5664578 21.1779422,15.4729124 Z" id="Combined-Shape" fill="#EB4600"></path>
            <path d="M43.5267671,9.05828234 L42.4085931,9.05828234 L42.4085931,3.48272945 L43.5267671,3.48272945 L43.5267671,9.05828234 Z M49.1406136,9.05828234 L48.0224396,9.05828234 L48.0224396,6.74151757 L45.7516272,6.74151757 L45.7516272,9.05828234 L44.6334531,9.05828234 L44.6334531,3.48272945 L45.7516272,3.48272945 L45.7516272,5.87991084 L48.0224396,5.87991084 L48.0224396,3.48272945 L49.1406136,3.48272945 L49.1406136,9.05828234 Z M54.3485477,7.21252926 L54.3562064,7.23550543 C54.3664181,7.83033616 54.1851634,8.29623736 53.8124368,8.63322301 C53.4397102,8.97020867 52.9253043,9.13869896 52.2692034,9.13869896 C51.6003379,9.13869896 51.0604032,8.92361854 50.6493828,8.49345126 C50.2383624,8.06328397 50.0328553,7.50739363 50.0328553,6.82576356 L50.0328553,5.71907759 C50.0328553,5.04000044 50.2332566,4.4841101 50.6340653,4.05138989 C51.034874,3.61866968 51.5607679,3.40231282 52.211763,3.40231282 C52.8908401,3.40231282 53.4218398,3.56825024 53.8047781,3.90013004 C54.1877163,4.23200985 54.3740768,4.69918749 54.3638651,5.30167699 L54.3562064,5.32465317 L53.2686672,5.32465317 C53.2686672,4.96724415 53.1825074,4.70110606 53.0101852,4.52623094 C52.837863,4.3513558 52.5717249,4.26391955 52.211763,4.26391955 C51.8773303,4.26391955 51.6162979,4.39858414 51.4286582,4.66791737 C51.2410184,4.93725061 51.1472,5.28508096 51.1472,5.71141886 L51.1472,6.82576356 C51.1472,7.25465439 51.2461242,7.6043994 51.4439756,7.87500909 C51.6418271,8.14561879 51.9169002,8.2809216 52.2692034,8.2809216 C52.6036361,8.2809216 52.8531805,8.19348534 53.0178439,8.01861022 C53.1825074,7.84373508 53.2648378,7.57504412 53.2648378,7.21252926 L54.3485477,7.21252926 Z M59.043347,4.34433618 L57.4503319,4.34433618 L57.4503319,9.05828234 L56.3321578,9.05828234 L56.3321578,4.34433618 L54.7621189,4.34433618 L54.7621189,3.48272945 L59.043347,3.48272945 L59.043347,4.34433618 Z M63.0067379,3.48272945 L64.124912,3.48272945 L64.124912,9.05828234 L63.0067379,9.05828234 L63.0067379,5.3323119 L62.9837618,5.32848253 L60.7320962,9.05828234 L59.6177515,9.05828234 L59.6177515,3.48272945 L60.7320962,3.48272945 L60.7320962,7.20487052 L60.7550724,7.20869989 L63.0067379,3.48272945 Z M69.0226676,4.34433618 L67.4296525,4.34433618 L67.4296525,9.05828234 L66.3114784,9.05828234 L66.3114784,4.34433618 L64.7414395,4.34433618 L64.7414395,3.48272945 L69.0226676,3.48272945 L69.0226676,4.34433618 Z M71.5615355,5.96032747 L71.6610989,6.29731144 L71.6840751,6.3011408 L72.8558602,3.48272945 L74.0391334,3.48272945 L72.0057416,8.00137808 C71.8449076,8.36134003 71.6508884,8.64088075 71.4236784,8.84000863 C71.1964683,9.03913652 70.8786344,9.13869896 70.4701669,9.13869896 C70.3169916,9.13869896 70.1804124,9.12529633 70.0604251,9.09849065 C69.9404377,9.07168497 69.802582,9.0327535 69.6468538,8.98169507 L69.7770522,8.18135815 C69.8919336,8.21454614 69.9934108,8.23943674 70.0814865,8.25603073 C70.1695624,8.27262473 70.258275,8.2809216 70.3476273,8.2809216 C70.5569669,8.2809216 70.7177985,8.23560792 70.8301271,8.1449792 C70.9424557,8.05435049 71.0305301,7.91968589 71.0943531,7.74098138 L71.1785991,7.5303664 L69.2141358,3.48272945 L70.4203852,3.48272945 L71.5615355,5.96032747 Z M78.5386353,4.34433618 L76.9456202,4.34433618 L76.9456202,9.05828234 L75.8274461,9.05828234 L75.8274461,4.34433618 L74.2574072,4.34433618 L74.2574072,3.48272945 L78.5386353,3.48272945 L78.5386353,4.34433618 Z M82.6322246,6.73002948 L82.2224828,6.73002948 L82.2224828,9.05828234 L81.1043087,9.05828234 L81.1043087,3.48272945 L82.2224828,3.48272945 L82.2224828,5.76120058 L82.5364905,5.76120058 L84.0644065,3.48272945 L85.4468066,3.48272945 L83.5168075,6.07520837 L85.5961518,9.05828234 L84.1716286,9.05828234 L82.6322246,6.73002948 Z M89.0081144,7.85586228 L87.2006549,7.85586228 L86.8253774,9.05828234 L85.6574216,9.05828234 L87.5376389,3.48272945 L88.6826185,3.48272945 L90.5551772,9.05828234 L89.3872213,9.05828234 L89.0081144,7.85586228 Z M87.4763691,6.97893809 L88.7362296,6.97893809 L88.1197021,5.01447475 L88.0967259,5.01447475 L87.4763691,6.97893809 Z M92.2094621,7.03637854 L92.2094621,9.05828234 L91.091288,9.05828234 L91.091288,3.48272945 L93.2242434,3.48272945 C93.8650266,3.48272945 94.3692211,3.64611398 94.7368418,3.97288794 C95.1044625,4.29966191 95.2882701,4.72982275 95.2882701,5.26338336 C95.2882701,5.79694398 95.1044625,6.22582837 94.7368418,6.55004941 C94.3692211,6.87427045 93.8650266,7.03637854 93.2242434,7.03637854 L92.2094621,7.03637854 Z M92.2094621,6.17477181 L93.2242434,6.17477181 C93.5356998,6.17477181 93.7718415,6.08988844 93.9326756,5.92011916 C94.0935096,5.75034987 94.1739254,5.53399301 94.1739254,5.27104209 C94.1739254,5.00298531 94.0941478,4.78152269 93.9345902,4.60664756 C93.7750326,4.43177243 93.5382527,4.34433618 93.2242434,4.34433618 L92.2094621,4.34433618 L92.2094621,6.17477181 Z M101.216124,10.4291944 L100.09795,10.4291944 L100.09795,9.05828234 L96.7434282,9.05828234 L96.7434282,10.4291944 L95.6290834,10.4291944 L95.6290834,8.20050497 L95.9545793,8.20050497 C96.2456124,8.20050497 96.4549488,8.00648584 96.5825949,7.61844176 C96.710241,7.23039767 96.7932097,6.61259991 96.8315035,5.76502994 L96.9578725,3.48272945 L100.553645,3.48272945 L100.553645,8.20050497 L101.216124,8.20050497 L101.216124,10.4291944 Z M97.9496776,5.76502994 C97.9241483,6.3036964 97.8654321,6.77597981 97.7735269,7.18189435 C97.6816217,7.58780888 97.5565304,7.92734236 97.3982493,8.20050497 L99.4392999,8.20050497 L99.4392999,4.34433618 L98.0262648,4.34433618 L97.9496776,5.76502994 Z M102.893386,9.05828234 L101.775211,9.05828234 L101.775211,3.48272945 L102.893386,3.48272945 L102.893386,9.05828234 Z M108.511061,6.77215248 C108.511061,7.45888839 108.295343,8.02499026 107.863899,8.47047508 C107.432455,8.9159599 106.870821,9.13869896 106.178979,9.13869896 C105.48969,9.13869896 104.930609,8.91532167 104.501718,8.4685604 C104.072827,8.02179912 103.858385,7.45633546 103.858385,6.77215248 L103.858385,5.76885931 C103.858385,5.08722924 104.072189,4.52240381 104.499803,4.07436607 C104.927418,3.62632833 105.484585,3.40231282 106.17132,3.40231282 C106.863162,3.40231282 107.426073,3.62632833 107.86007,4.07436607 C108.294066,4.52240381 108.511061,5.08722924 108.511061,5.76885931 L108.511061,6.77215248 Z M107.396717,5.76120058 C107.396717,5.32720391 107.288219,4.97107669 107.071221,4.69280823 C106.854223,4.41453978 106.554259,4.27540764 106.17132,4.27540764 C105.793488,4.27540764 105.499268,4.41453978 105.288652,4.69280823 C105.078036,4.97107669 104.97273,5.32720391 104.97273,5.76120058 L104.97273,6.77215248 C104.97273,7.21380791 105.078674,7.57376446 105.290567,7.85203291 C105.502459,8.13030136 105.798594,8.2694335 106.178979,8.2694335 C106.561917,8.2694335 106.860605,8.13030136 107.07505,7.85203291 C107.289496,7.57376446 107.396717,7.21380791 107.396717,6.77215248 L107.396717,5.76120058 Z M113.902805,3.48272945 L113.902805,9.05828234 L112.784631,9.05828234 L112.784631,4.34433618 L111.199274,4.34433618 L111.199274,6.02159728 C111.199274,7.09893019 111.036528,7.8743685 110.711031,8.34793545 C110.385533,8.82150241 109.88453,9.05828234 109.208005,9.05828234 L109.043343,9.05828234 L109.043343,8.20050497 L109.196517,8.20050497 C109.546268,8.20050497 109.781133,8.04477909 109.90112,7.73332266 C110.021108,7.42186622 110.0811,6.8512968 110.0811,6.02159728 L110.0811,3.48272945 L113.902805,3.48272945 Z M119.436235,6.77215248 C119.436235,7.45888839 119.220516,8.02499026 118.789072,8.47047508 C118.357629,8.9159599 117.795994,9.13869896 117.104153,9.13869896 C116.414864,9.13869896 115.855782,8.91532167 115.426891,8.4685604 C114.998001,8.02179912 114.783558,7.45633546 114.783558,6.77215248 L114.783558,5.76885931 C114.783558,5.08722924 114.997362,4.52240381 115.424977,4.07436607 C115.852591,3.62632833 116.409758,3.40231282 117.096494,3.40231282 C117.788336,3.40231282 118.351246,3.62632833 118.785243,4.07436607 C119.21924,4.52240381 119.436235,5.08722924 119.436235,5.76885931 L119.436235,6.77215248 Z M118.32189,5.76120058 C118.32189,5.32720391 118.213392,4.97107669 117.996394,4.69280823 C117.779396,4.41453978 117.479432,4.27540764 117.096494,4.27540764 C116.718661,4.27540764 116.424442,4.41453978 116.213826,4.69280823 C116.00321,4.97107669 115.897903,5.32720391 115.897903,5.76120058 L115.897903,6.77215248 C115.897903,7.21380791 116.003848,7.57376446 116.21574,7.85203291 C116.427633,8.13030136 116.723767,8.2694335 117.104153,8.2694335 C117.487091,8.2694335 117.785778,8.13030136 118.000224,7.85203291 C118.214669,7.57376446 118.32189,7.21380791 118.32189,6.77215248 L118.32189,5.76120058 Z M123.947225,4.34433618 L121.431333,4.34433618 L121.431333,9.05828234 L120.313159,9.05828234 L120.313159,3.48272945 L123.947225,3.48272945 L123.947225,4.34433618 Z M125.869565,9.05828234 L124.751391,9.05828234 L124.751391,3.48272945 L125.869565,3.48272945 L125.869565,9.05828234 Z M128.171012,9.05828234 L127.052839,9.05828234 L127.052839,3.48272945 L128.171012,3.48272945 L128.171012,9.05828234 Z M129.082401,2.92747178 L128.06379,2.92747178 L128.06379,2.14628168 L129.082401,2.14628168 L129.082401,2.92747178 Z M127.167719,2.92747178 L126.149109,2.92747178 L126.149109,2.14628168 L127.167719,2.14628168 L127.167719,2.92747178 Z M43.5267671,16.9008183 L42.4085931,16.9008183 L42.4085931,11.3252654 L43.5267671,11.3252654 L43.5267671,16.9008183 Z M47.5169636,15.4341721 L47.5399398,15.4341721 L48.9721217,11.3252654 L50.4311091,11.3252654 L50.4311091,16.9008183 L49.312935,16.9008183 L49.312935,13.0944312 L49.2899588,13.0906019 L47.911388,16.9008183 L47.1531741,16.9008183 L45.7746034,13.0829431 L45.7516272,13.0867725 L45.7516272,16.9008183 L44.6334531,16.9008183 L44.6334531,11.3252654 L46.1000992,11.3252654 L47.5169636,15.4341721 Z M54.6434086,14.4500258 L52.5755525,14.4500258 L52.5755525,16.0430409 L55.0340037,16.0430409 L55.0340037,16.9008183 L51.4573784,16.9008183 L51.4573784,11.3252654 L55.026345,11.3252654 L55.026345,12.1868721 L52.5755525,12.1868721 L52.5755525,13.5884191 L54.6434086,13.5884191 L54.6434086,14.4500258 Z M60.3261837,16.9008183 L59.2080096,16.9008183 L59.2080096,14.5840535 L56.9371972,14.5840535 L56.9371972,16.9008183 L55.8190232,16.9008183 L55.8190232,11.3252654 L56.9371972,11.3252654 L56.9371972,13.7224468 L59.2080096,13.7224468 L59.2080096,11.3252654 L60.3261837,11.3252654 L60.3261837,16.9008183 Z M62.5472143,16.9008183 L61.4290403,16.9008183 L61.4290403,11.3252654 L62.5472143,11.3252654 L62.5472143,16.9008183 Z M68.5133623,15.6983982 L66.7059029,15.6983982 L66.3306253,16.9008183 L65.1626695,16.9008183 L67.0428868,11.3252654 L68.1878664,11.3252654 L70.0604251,16.9008183 L68.8924692,16.9008183 L68.5133623,15.6983982 Z M66.981617,14.821474 L68.2414775,14.821474 L67.62495,12.8570107 L67.6019738,12.8570107 L66.981617,14.821474 Z M72.1244519,14.5725654 L71.71471,14.5725654 L71.71471,16.9008183 L70.5965359,16.9008183 L70.5965359,11.3252654 L71.71471,11.3252654 L71.71471,13.6037365 L72.0287178,13.6037365 L73.5566337,11.3252654 L74.9390339,11.3252654 L73.0090348,13.9177443 L75.088379,16.9008183 L73.6638559,16.9008183 L72.1244519,14.5725654 Z M78.5003417,15.6983982 L76.6928822,15.6983982 L76.3176046,16.9008183 L75.1496488,16.9008183 L77.0298662,11.3252654 L78.1748457,11.3252654 L80.0474044,16.9008183 L78.8794486,16.9008183 L78.5003417,15.6983982 Z M76.9685964,14.821474 L78.2284569,14.821474 L77.6119294,12.8570107 L77.5889532,12.8570107 L76.9685964,14.821474 Z M85.7110326,18.2717303 L84.5928586,18.2717303 L84.5928586,16.9008183 L81.2383363,16.9008183 L81.2383363,18.2717303 L80.1239917,18.2717303 L80.1239917,16.0430409 L80.4494876,16.0430409 C80.7405206,16.0430409 80.9498571,15.8490217 81.0775031,15.4609777 C81.2051492,15.0729336 81.2881179,14.4551358 81.3264117,13.6075658 L81.4527807,11.3252654 L85.0485528,11.3252654 L85.0485528,16.0430409 L85.7110326,16.0430409 L85.7110326,18.2717303 Z M82.4445858,13.6075658 C82.4190566,14.1462323 82.3603403,14.6185158 82.2684351,15.0244303 C82.1765299,15.4303448 82.0514386,15.7698783 81.8931575,16.0430409 L83.9342081,16.0430409 L83.9342081,12.1868721 L82.521173,12.1868721 L82.4445858,13.6075658 Z M89.3795626,14.4500258 L87.3117065,14.4500258 L87.3117065,16.0430409 L89.7701577,16.0430409 L89.7701577,16.9008183 L86.1935324,16.9008183 L86.1935324,11.3252654 L89.762499,11.3252654 L89.762499,12.1868721 L87.3117065,12.1868721 L87.3117065,13.5884191 L89.3795626,13.5884191 L89.3795626,14.4500258 Z M93.4386877,15.4341721 L93.4616638,15.4341721 L94.8938457,11.3252654 L96.3528331,11.3252654 L96.3528331,16.9008183 L95.234659,16.9008183 L95.234659,13.0944312 L95.2116829,13.0906019 L93.8331121,16.9008183 L93.0748982,16.9008183 L91.6963274,13.0829431 L91.6733512,13.0867725 L91.6733512,16.9008183 L90.5551772,16.9008183 L90.5551772,11.3252654 L92.0218232,11.3252654 L93.4386877,15.4341721 Z M98.5738638,16.9008183 L97.4556897,16.9008183 L97.4556897,11.3252654 L98.5738638,11.3252654 L98.5738638,16.9008183 Z M101.208466,14.5725654 L100.798724,14.5725654 L100.798724,16.9008183 L99.6805497,16.9008183 L99.6805497,11.3252654 L100.798724,11.3252654 L100.798724,13.6037365 L101.112732,13.6037365 L102.640648,11.3252654 L104.023048,11.3252654 L102.093049,13.9177443 L104.172393,16.9008183 L102.74787,16.9008183 L101.208466,14.5725654 Z M107.584355,15.6983982 L105.776896,15.6983982 L105.401618,16.9008183 L104.233663,16.9008183 L106.11388,11.3252654 L107.25886,11.3252654 L109.131418,16.9008183 L107.963462,16.9008183 L107.584355,15.6983982 Z M106.05261,14.821474 L107.312471,14.821474 L106.695943,12.8570107 L106.672967,12.8570107 L106.05261,14.821474 Z M114.504015,15.4341721 L114.526991,15.4341721 L115.959173,11.3252654 L117.41816,11.3252654 L117.41816,16.9008183 L116.299986,16.9008183 L116.299986,13.0944312 L116.27701,13.0906019 L114.898439,16.9008183 L114.140225,16.9008183 L112.761655,13.0829431 L112.738678,13.0867725 L112.738678,16.9008183 L111.620504,16.9008183 L111.620504,11.3252654 L113.08715,11.3252654 L114.504015,15.4341721 Z M119.600897,16.9008183 L118.482723,16.9008183 L118.482723,15.9205013 L119.600897,15.9205013 L119.600897,16.9008183 Z M125.854247,18.2717303 L124.736073,18.2717303 L124.736073,16.9008183 L121.381551,16.9008183 L121.381551,18.2717303 L120.267207,18.2717303 L120.267207,16.0430409 L120.592703,16.0430409 C120.883736,16.0430409 121.093072,15.8490217 121.220718,15.4609777 C121.348364,15.0729336 121.431333,14.4551358 121.469627,13.6075658 L121.595996,11.3252654 L125.191768,11.3252654 L125.191768,16.0430409 L125.854247,16.0430409 L125.854247,18.2717303 Z M122.587801,13.6075658 C122.562272,14.1462323 122.503555,14.6185158 122.41165,15.0244303 C122.319745,15.4303448 122.194653,15.7698783 122.036372,16.0430409 L124.077423,16.0430409 L124.077423,12.1868721 L122.664388,12.1868721 L122.587801,13.6075658 Z M127.493215,16.9008183 L126.375041,16.9008183 L126.375041,15.9205013 L127.493215,15.9205013 L127.493215,16.9008183 Z" id="Інститут-кардіології" fill="#4A4A4A"></path>
            <path d="M50.6853816,26.0169996 L50.69966,26.0598347 C50.7186979,27.168796 50.3807792,28.0373899 49.6858936,28.6656426 C48.9910081,29.2938953 48.0319852,29.608017 46.8087962,29.608017 C45.5618098,29.608017 44.5551927,29.2070359 43.7889148,28.4050618 C43.0226369,27.6030877 42.6395037,26.5667243 42.6395037,25.2959405 L42.6395037,23.2327117 C42.6395037,21.9666873 43.013118,20.9303239 43.760358,20.1235903 C44.5075979,19.3168568 45.4880382,18.913496 46.7017082,18.913496 C47.9677326,18.913496 48.9576917,19.2228582 49.6716152,19.8415919 C50.3855388,20.4603257 50.7329764,21.3312993 50.7139384,22.454539 L50.69966,22.4973742 L48.6721273,22.4973742 C48.6721273,21.8310456 48.5114969,21.3348762 48.1902313,21.008851 C47.8689657,20.682826 47.3727963,20.5198159 46.7017082,20.5198159 C46.078215,20.5198159 45.5915644,20.7708753 45.2417419,21.2730015 C44.8919194,21.7751277 44.7170107,22.4235985 44.7170107,23.2184333 L44.7170107,25.2959405 C44.7170107,26.0955348 44.9014382,26.7475751 45.2702987,27.2520811 C45.6391592,27.7565871 46.1519866,28.0088363 46.8087962,28.0088363 C47.4322894,28.0088363 47.8975226,27.8458262 48.2045097,27.5198011 C48.5114968,27.193776 48.6649881,26.6928471 48.6649881,26.0169996 L50.6853816,26.0169996 Z M59.4380403,20.6697391 L56.4681332,20.6697391 L56.4681332,29.4580938 L54.383487,29.4580938 L54.383487,20.6697391 L51.4564152,20.6697391 L51.4564152,19.0634192 L59.4380403,19.0634192 L59.4380403,20.6697391 Z M62.6649585,25.6885964 L62.6649585,29.4580938 L60.5803122,29.4580938 L60.5803122,19.0634192 L64.5568464,19.0634192 C65.7514784,19.0634192 66.6914636,19.368022 67.3768302,19.9772367 C68.0621967,20.5864515 68.4048749,21.3884136 68.4048749,22.383147 C68.4048749,23.3778805 68.0621967,24.1774628 67.3768302,24.7819181 C66.6914636,25.3863733 65.7514784,25.6885964 64.5568464,25.6885964 L62.6649585,25.6885964 Z M62.6649585,24.0822765 L64.5568464,24.0822765 C65.1375041,24.0822765 65.5777504,23.9240258 65.8775983,23.6075197 C66.1774461,23.2910136 66.3273679,22.8876529 66.3273679,22.3974254 C66.3273679,21.8976789 66.178636,21.4847993 65.8811679,21.1587743 C65.5836997,20.8327492 65.1422636,20.6697391 64.5568464,20.6697391 L62.6649585,20.6697391 L62.6649585,24.0822765 Z M75.3156201,27.2163851 L71.9459179,27.2163851 L71.2462764,29.4580938 L69.0688205,29.4580938 L72.5741675,19.0634192 L74.7087881,19.0634192 L78.1998567,29.4580938 L76.0224008,29.4580938 L75.3156201,27.2163851 Z M72.4599403,25.5815084 L74.8087369,25.5815084 L73.6593258,21.9190991 L73.6164906,21.9190991 L72.4599403,25.5815084 Z M86.652669,25.1174604 L85.9958626,25.1174604 L85.9958626,29.4580938 L83.9183556,29.4580938 L83.9183556,25.1174604 L83.2258532,25.1174604 L80.8841957,29.4580938 L78.2855271,29.4580938 L81.5624197,23.8538221 L78.4568679,19.0634192 L81.034119,19.0634192 L83.3900548,23.3112429 L83.9183556,23.3112429 L83.9183556,19.0634192 L85.9958626,19.0634192 L85.9958626,23.3112429 L86.4956067,23.3112429 L88.8015681,19.0634192 L91.3716799,19.0634192 L88.3089633,23.8466829 L91.5430207,29.4580938 L88.9514913,29.4580938 L86.652669,25.1174604 Z M98.4894619,24.889006 L94.6342942,24.889006 L94.6342942,27.858913 L99.2176603,27.858913 L99.2176603,29.4580938 L92.5496479,29.4580938 L92.5496479,19.0634192 L99.2033819,19.0634192 L99.2033819,20.6697391 L94.6342942,20.6697391 L94.6342942,23.2826861 L98.4894619,23.2826861 L98.4894619,24.889006 Z M108.477202,26.0169996 L108.491481,26.0598347 C108.510519,27.168796 108.1726,28.0373899 107.477714,28.6656426 C106.782829,29.2938953 105.823806,29.608017 104.600617,29.608017 C103.35363,29.608017 102.347013,29.2070359 101.580735,28.4050618 C100.814457,27.6030877 100.431324,26.5667243 100.431324,25.2959405 L100.431324,23.2327117 C100.431324,21.9666873 100.804939,20.9303239 101.552179,20.1235903 C102.299419,19.3168568 103.279859,18.913496 104.493529,18.913496 C105.759553,18.913496 106.749512,19.2228582 107.463436,19.8415919 C108.177359,20.4603257 108.524797,21.3312993 108.505759,22.454539 L108.491481,22.4973742 L106.463948,22.4973742 C106.463948,21.8310456 106.303317,21.3348762 105.982052,21.008851 C105.660786,20.682826 105.164617,20.5198159 104.493529,20.5198159 C103.870036,20.5198159 103.383385,20.7708753 103.033562,21.2730015 C102.68374,21.7751277 102.508831,22.4235985 102.508831,23.2184333 L102.508831,25.2959405 C102.508831,26.0955348 102.693259,26.7475751 103.062119,27.2520811 C103.43098,27.7565871 103.943807,28.0088363 104.600617,28.0088363 C105.22411,28.0088363 105.689343,27.8458262 105.99633,27.5198011 C106.303317,27.193776 106.456809,26.6928471 106.456809,26.0169996 L108.477202,26.0169996 Z M112.832114,25.1174604 L112.06822,25.1174604 L112.06822,29.4580938 L109.983573,29.4580938 L109.983573,19.0634192 L112.06822,19.0634192 L112.06822,23.3112429 L112.653634,23.3112429 L115.502174,19.0634192 L118.079426,19.0634192 L114.481269,23.8966573 L118.357854,29.4580938 L115.702072,29.4580938 L112.832114,25.1174604 Z M124.718881,27.2163851 L121.349179,27.2163851 L120.649537,29.4580938 L118.472082,29.4580938 L121.977429,19.0634192 L124.112049,19.0634192 L127.603118,29.4580938 L125.425662,29.4580938 L124.718881,27.2163851 Z M121.863201,25.5815084 L124.211998,25.5815084 L123.062587,21.9190991 L123.019752,21.9190991 L121.863201,25.5815084 Z" id="Стражеска" fill="#4A4A4A"></path>
        </g>
    </g>
</svg>