<?xml version="1.0" encoding="UTF-8"?>
<svg width="130px" height="33px" viewBox="0 0 130 33" version="1.1" xmlns="http://www.w3.org/2000/svg" xmlns:xlink="http://www.w3.org/1999/xlink">
    <!-- Generator: Sketch 48.1 (47250) - http://www.bohemiancoding.com/sketch -->
    <title>logo</title>
    <desc>Created with Sketch.</desc>
    <defs></defs>
    <g id="Artboard" stroke="none" stroke-width="1" fill="none" fill-rule="evenodd" transform="translate(-73.000000, -168.000000)">
        <g id="logo" transform="translate(73.246094, 168.235352)" fill-rule="nonzero">
            <path d="M16.1225908,10.2615689 C16.4228633,9.59225916 17.3156583,9.09486117 18.0411259,8.79573473 C19.6261522,9.7332268 21.1080314,11.2643874 21.2558755,13.730748 C19.3098346,11.961203 17.1838593,11.3663884 16.082478,11.1749933 C15.9575555,10.7337532 16.037781,10.4506718 16.1225908,10.2615689 Z M4.87497815,8.3693936 C4.55980662,10.4735934 5.18671145,12.9789206 5.87779668,14.9410067 C3.45384104,17.1643986 2.85558816,19.5161513 2.76619405,21.0106374 C2.33870684,20.4387444 1.90663531,19.7201532 1.47685594,18.795268 C-1.03420165,13.4213068 2.73066562,15.2126272 3.35986262,11.0328796 C3.58334789,9.53151701 4.21483704,8.65132886 4.93113599,8.13444754 C4.91509089,8.21238087 4.88873109,8.28916812 4.87497815,8.3693936 Z M6.30299173,7.52817211 C6.46917309,7.11099961 6.68348974,6.69955749 6.95167206,6.30072224 L4.86580953,4.00283521 L5.71390748,3.2315245 L7.66109454,5.37469096 C7.9063553,5.0870253 8.17109939,4.80738219 8.44615819,4.53576163 L6.52303877,2.36394322 L7.37113673,1.59263251 L9.28737967,3.75757445 C9.57962964,3.50429114 9.87531785,3.25788431 10.1732982,3.02752256 L8.25476311,0.918738462 L9.10286106,0.146281676 L11.0970373,2.34216773 C12.6855019,1.2178649 14.0309978,0.517611051 14.0309978,0.517611051 L15.1770761,2.80976768 C15.1770761,2.80976768 8.47824838,6.34656537 9.13151302,12.7038618 C8.72465522,12.9158863 8.355618,13.1336412 7.99918764,13.3548343 C7.57399259,13.6161401 7.18088773,13.8854685 6.81987306,14.1570891 C6.2307888,12.399005 5.74714375,10.2856365 6.00959569,8.54015927 C6.05887705,8.19977401 6.16890057,7.8616809 6.30299173,7.52817211 Z M21.1779422,15.2939988 C22.0730294,16.2979634 22.8833067,17.6251221 23.4380086,19.3923748 C25.3210153,25.364589 25.2224526,28.8291837 23.1984783,30.3133551 C21.4037196,31.6301991 19.6731414,31.9339099 15.2790771,31.3368031 C10.887305,30.7408423 5.24057714,30.1437355 3.9844753,22.3790549 C3.9844753,22.3790549 3.97186844,22.3206049 3.9581155,22.2346491 C3.86069884,21.6065982 3.62689887,18.8422573 6.32247507,16.1203213 C6.59294955,15.8464085 6.90009854,15.5736419 7.23360733,15.3031674 C7.48918279,15.0957272 7.75965728,14.8917253 8.05534548,14.6877234 C8.6937111,14.2522136 9.41459436,13.8247264 10.2604002,13.4213068 C10.2604002,12.6270745 10.3028051,10.8964963 11.0592167,9.21978371 C11.3617814,8.55505829 11.7755157,7.89720933 12.3439705,7.31041723 C13.5714204,6.04285462 15.5186075,5.10077824 18.6164572,5.10077824 L18.6164572,7.39293487 C18.6164572,7.39293487 17.677819,7.62100446 16.7426191,8.15163872 C15.4693261,8.87481414 14.1960331,10.1618601 15.2813693,12.2259471 C15.2813693,12.2259471 18.5878052,12.3875442 21.1779422,15.2939988 Z" id="Combined-Shape" fill="#EB4600"></path>
            <path d="M43.5267671,7.05828234 L42.4085931,7.05828234 L42.4085931,1.48272945 L43.5267671,1.48272945 L43.5267671,7.05828234 Z M49.1406136,7.05828234 L48.0224396,7.05828234 L48.0224396,4.74151757 L45.7516272,4.74151757 L45.7516272,7.05828234 L44.6334531,7.05828234 L44.6334531,1.48272945 L45.7516272,1.48272945 L45.7516272,3.87991084 L48.0224396,3.87991084 L48.0224396,1.48272945 L49.1406136,1.48272945 L49.1406136,7.05828234 Z M54.3485477,5.21252926 L54.3562064,5.23550543 C54.3664181,5.83033616 54.1851634,6.29623736 53.8124368,6.63322301 C53.4397102,6.97020867 52.9253043,7.13869896 52.2692034,7.13869896 C51.6003379,7.13869896 51.0604032,6.92361854 50.6493828,6.49345126 C50.2383624,6.06328397 50.0328553,5.50739363 50.0328553,4.82576356 L50.0328553,3.71907759 C50.0328553,3.04000044 50.2332566,2.4841101 50.6340653,2.05138989 C51.034874,1.61866968 51.5607679,1.40231282 52.211763,1.40231282 C52.8908401,1.40231282 53.4218398,1.56825024 53.8047781,1.90013004 C54.1877163,2.23200985 54.3740768,2.69918749 54.3638651,3.30167699 L54.3562064,3.32465317 L53.2686672,3.32465317 C53.2686672,2.96724415 53.1825074,2.70110606 53.0101852,2.52623094 C52.837863,2.3513558 52.5717249,2.26391955 52.211763,2.26391955 C51.8773303,2.26391955 51.6162979,2.39858414 51.4286582,2.66791737 C51.2410184,2.93725061 51.1472,3.28508096 51.1472,3.71141886 L51.1472,4.82576356 C51.1472,5.25465439 51.2461242,5.6043994 51.4439756,5.87500909 C51.6418271,6.14561879 51.9169002,6.2809216 52.2692034,6.2809216 C52.6036361,6.2809216 52.8531805,6.19348534 53.0178439,6.01861022 C53.1825074,5.84373508 53.2648378,5.57504412 53.2648378,5.21252926 L54.3485477,5.21252926 Z M59.043347,2.34433618 L57.4503319,2.34433618 L57.4503319,7.05828234 L56.3321578,7.05828234 L56.3321578,2.34433618 L54.7621189,2.34433618 L54.7621189,1.48272945 L59.043347,1.48272945 L59.043347,2.34433618 Z M63.0067379,1.48272945 L64.124912,1.48272945 L64.124912,7.05828234 L63.0067379,7.05828234 L63.0067379,3.3323119 L62.9837618,3.32848253 L60.7320962,7.05828234 L59.6177515,7.05828234 L59.6177515,1.48272945 L60.7320962,1.48272945 L60.7320962,5.20487052 L60.7550724,5.20869989 L63.0067379,1.48272945 Z M69.0226676,2.34433618 L67.4296525,2.34433618 L67.4296525,7.05828234 L66.3114784,7.05828234 L66.3114784,2.34433618 L64.7414395,2.34433618 L64.7414395,1.48272945 L69.0226676,1.48272945 L69.0226676,2.34433618 Z M71.5615355,3.96032747 L71.6610989,4.29731144 L71.6840751,4.3011408 L72.8558602,1.48272945 L74.0391334,1.48272945 L72.0057416,6.00137808 C71.8449076,6.36134003 71.6508884,6.64088075 71.4236784,6.84000863 C71.1964683,7.03913652 70.8786344,7.13869896 70.4701669,7.13869896 C70.3169916,7.13869896 70.1804124,7.12529633 70.0604251,7.09849065 C69.9404377,7.07168497 69.802582,7.0327535 69.6468538,6.98169507 L69.7770522,6.18135815 C69.8919336,6.21454614 69.9934108,6.23943674 70.0814865,6.25603073 C70.1695624,6.27262473 70.258275,6.2809216 70.3476273,6.2809216 C70.5569669,6.2809216 70.7177985,6.23560792 70.8301271,6.1449792 C70.9424557,6.05435049 71.0305301,5.91968589 71.0943531,5.74098138 L71.1785991,5.5303664 L69.2141358,1.48272945 L70.4203852,1.48272945 L71.5615355,3.96032747 Z M78.5386353,2.34433618 L76.9456202,2.34433618 L76.9456202,7.05828234 L75.8274461,7.05828234 L75.8274461,2.34433618 L74.2574072,2.34433618 L74.2574072,1.48272945 L78.5386353,1.48272945 L78.5386353,2.34433618 Z M82.6322246,4.73002948 L82.2224828,4.73002948 L82.2224828,7.05828234 L81.1043087,7.05828234 L81.1043087,1.48272945 L82.2224828,1.48272945 L82.2224828,3.76120058 L82.5364905,3.76120058 L84.0644065,1.48272945 L85.4468066,1.48272945 L83.5168075,4.07520837 L85.5961518,7.05828234 L84.1716286,7.05828234 L82.6322246,4.73002948 Z M89.0081144,5.85586228 L87.2006549,5.85586228 L86.8253774,7.05828234 L85.6574216,7.05828234 L87.5376389,1.48272945 L88.6826185,1.48272945 L90.5551772,7.05828234 L89.3872213,7.05828234 L89.0081144,5.85586228 Z M87.4763691,4.97893809 L88.7362296,4.97893809 L88.1197021,3.01447475 L88.0967259,3.01447475 L87.4763691,4.97893809 Z M92.2094621,5.03637854 L92.2094621,7.05828234 L91.091288,7.05828234 L91.091288,1.48272945 L93.2242434,1.48272945 C93.8650266,1.48272945 94.3692211,1.64611398 94.7368418,1.97288794 C95.1044625,2.29966191 95.2882701,2.72982275 95.2882701,3.26338336 C95.2882701,3.79694398 95.1044625,4.22582837 94.7368418,4.55004941 C94.3692211,4.87427045 93.8650266,5.03637854 93.2242434,5.03637854 L92.2094621,5.03637854 Z M92.2094621,4.17477181 L93.2242434,4.17477181 C93.5356998,4.17477181 93.7718415,4.08988844 93.9326756,3.92011916 C94.0935096,3.75034987 94.1739254,3.53399301 94.1739254,3.27104209 C94.1739254,3.00298531 94.0941478,2.78152269 93.9345902,2.60664756 C93.7750326,2.43177243 93.5382527,2.34433618 93.2242434,2.34433618 L92.2094621,2.34433618 L92.2094621,4.17477181 Z M101.216124,8.42919438 L100.09795,8.42919438 L100.09795,7.05828234 L96.7434282,7.05828234 L96.7434282,8.42919438 L95.6290834,8.42919438 L95.6290834,6.20050497 L95.9545793,6.20050497 C96.2456124,6.20050497 96.4549488,6.00648584 96.5825949,5.61844176 C96.710241,5.23039767 96.7932097,4.61259991 96.8315035,3.76502994 L96.9578725,1.48272945 L100.553645,1.48272945 L100.553645,6.20050497 L101.216124,6.20050497 L101.216124,8.42919438 Z M97.9496776,3.76502994 C97.9241483,4.3036964 97.8654321,4.77597981 97.7735269,5.18189435 C97.6816217,5.58780888 97.5565304,5.92734236 97.3982493,6.20050497 L99.4392999,6.20050497 L99.4392999,2.34433618 L98.0262648,2.34433618 L97.9496776,3.76502994 Z M102.893386,7.05828234 L101.775211,7.05828234 L101.775211,1.48272945 L102.893386,1.48272945 L102.893386,7.05828234 Z M108.511061,4.77215248 C108.511061,5.45888839 108.295343,6.02499026 107.863899,6.47047508 C107.432455,6.9159599 106.870821,7.13869896 106.178979,7.13869896 C105.48969,7.13869896 104.930609,6.91532167 104.501718,6.4685604 C104.072827,6.02179912 103.858385,5.45633546 103.858385,4.77215248 L103.858385,3.76885931 C103.858385,3.08722924 104.072189,2.52240381 104.499803,2.07436607 C104.927418,1.62632833 105.484585,1.40231282 106.17132,1.40231282 C106.863162,1.40231282 107.426073,1.62632833 107.86007,2.07436607 C108.294066,2.52240381 108.511061,3.08722924 108.511061,3.76885931 L108.511061,4.77215248 Z M107.396717,3.76120058 C107.396717,3.32720391 107.288219,2.97107669 107.071221,2.69280823 C106.854223,2.41453978 106.554259,2.27540764 106.17132,2.27540764 C105.793488,2.27540764 105.499268,2.41453978 105.288652,2.69280823 C105.078036,2.97107669 104.97273,3.32720391 104.97273,3.76120058 L104.97273,4.77215248 C104.97273,5.21380791 105.078674,5.57376446 105.290567,5.85203291 C105.502459,6.13030136 105.798594,6.2694335 106.178979,6.2694335 C106.561917,6.2694335 106.860605,6.13030136 107.07505,5.85203291 C107.289496,5.57376446 107.396717,5.21380791 107.396717,4.77215248 L107.396717,3.76120058 Z M113.902805,1.48272945 L113.902805,7.05828234 L112.784631,7.05828234 L112.784631,2.34433618 L111.199274,2.34433618 L111.199274,4.02159728 C111.199274,5.09893019 111.036528,5.8743685 110.711031,6.34793545 C110.385533,6.82150241 109.88453,7.05828234 109.208005,7.05828234 L109.043343,7.05828234 L109.043343,6.20050497 L109.196517,6.20050497 C109.546268,6.20050497 109.781133,6.04477909 109.90112,5.73332266 C110.021108,5.42186622 110.0811,4.8512968 110.0811,4.02159728 L110.0811,1.48272945 L113.902805,1.48272945 Z M119.436235,4.77215248 C119.436235,5.45888839 119.220516,6.02499026 118.789072,6.47047508 C118.357629,6.9159599 117.795994,7.13869896 117.104153,7.13869896 C116.414864,7.13869896 115.855782,6.91532167 115.426891,6.4685604 C114.998001,6.02179912 114.783558,5.45633546 114.783558,4.77215248 L114.783558,3.76885931 C114.783558,3.08722924 114.997362,2.52240381 115.424977,2.07436607 C115.852591,1.62632833 116.409758,1.40231282 117.096494,1.40231282 C117.788336,1.40231282 118.351246,1.62632833 118.785243,2.07436607 C119.21924,2.52240381 119.436235,3.08722924 119.436235,3.76885931 L119.436235,4.77215248 Z M118.32189,3.76120058 C118.32189,3.32720391 118.213392,2.97107669 117.996394,2.69280823 C117.779396,2.41453978 117.479432,2.27540764 117.096494,2.27540764 C116.718661,2.27540764 116.424442,2.41453978 116.213826,2.69280823 C116.00321,2.97107669 115.897903,3.32720391 115.897903,3.76120058 L115.897903,4.77215248 C115.897903,5.21380791 116.003848,5.57376446 116.21574,5.85203291 C116.427633,6.13030136 116.723767,6.2694335 117.104153,6.2694335 C117.487091,6.2694335 117.785778,6.13030136 118.000224,5.85203291 C118.214669,5.57376446 118.32189,5.21380791 118.32189,4.77215248 L118.32189,3.76120058 Z M123.947225,2.34433618 L121.431333,2.34433618 L121.431333,7.05828234 L120.313159,7.05828234 L120.313159,1.48272945 L123.947225,1.48272945 L123.947225,2.34433618 Z M125.869565,7.05828234 L124.751391,7.05828234 L124.751391,1.48272945 L125.869565,1.48272945 L125.869565,7.05828234 Z M128.171012,7.05828234 L127.052839,7.05828234 L127.052839,1.48272945 L128.171012,1.48272945 L128.171012,7.05828234 Z M129.082401,0.927471779 L128.06379,0.927471779 L128.06379,0.146281676 L129.082401,0.146281676 L129.082401,0.927471779 Z M127.167719,0.927471779 L126.149109,0.927471779 L126.149109,0.146281676 L127.167719,0.146281676 L127.167719,0.927471779 Z M43.5267671,14.9008183 L42.4085931,14.9008183 L42.4085931,9.32526538 L43.5267671,9.32526538 L43.5267671,14.9008183 Z M47.5169636,13.4341721 L47.5399398,13.4341721 L48.9721217,9.32526538 L50.4311091,9.32526538 L50.4311091,14.9008183 L49.312935,14.9008183 L49.312935,11.0944312 L49.2899588,11.0906019 L47.911388,14.9008183 L47.1531741,14.9008183 L45.7746034,11.0829431 L45.7516272,11.0867725 L45.7516272,14.9008183 L44.6334531,14.9008183 L44.6334531,9.32526538 L46.1000992,9.32526538 L47.5169636,13.4341721 Z M54.6434086,12.4500258 L52.5755525,12.4500258 L52.5755525,14.0430409 L55.0340037,14.0430409 L55.0340037,14.9008183 L51.4573784,14.9008183 L51.4573784,9.32526538 L55.026345,9.32526538 L55.026345,10.1868721 L52.5755525,10.1868721 L52.5755525,11.5884191 L54.6434086,11.5884191 L54.6434086,12.4500258 Z M60.3261837,14.9008183 L59.2080096,14.9008183 L59.2080096,12.5840535 L56.9371972,12.5840535 L56.9371972,14.9008183 L55.8190232,14.9008183 L55.8190232,9.32526538 L56.9371972,9.32526538 L56.9371972,11.7224468 L59.2080096,11.7224468 L59.2080096,9.32526538 L60.3261837,9.32526538 L60.3261837,14.9008183 Z M62.5472143,14.9008183 L61.4290403,14.9008183 L61.4290403,9.32526538 L62.5472143,9.32526538 L62.5472143,14.9008183 Z M68.5133623,13.6983982 L66.7059029,13.6983982 L66.3306253,14.9008183 L65.1626695,14.9008183 L67.0428868,9.32526538 L68.1878664,9.32526538 L70.0604251,14.9008183 L68.8924692,14.9008183 L68.5133623,13.6983982 Z M66.981617,12.821474 L68.2414775,12.821474 L67.62495,10.8570107 L67.6019738,10.8570107 L66.981617,12.821474 Z M72.1244519,12.5725654 L71.71471,12.5725654 L71.71471,14.9008183 L70.5965359,14.9008183 L70.5965359,9.32526538 L71.71471,9.32526538 L71.71471,11.6037365 L72.0287178,11.6037365 L73.5566337,9.32526538 L74.9390339,9.32526538 L73.0090348,11.9177443 L75.088379,14.9008183 L73.6638559,14.9008183 L72.1244519,12.5725654 Z M78.5003417,13.6983982 L76.6928822,13.6983982 L76.3176046,14.9008183 L75.1496488,14.9008183 L77.0298662,9.32526538 L78.1748457,9.32526538 L80.0474044,14.9008183 L78.8794486,14.9008183 L78.5003417,13.6983982 Z M76.9685964,12.821474 L78.2284569,12.821474 L77.6119294,10.8570107 L77.5889532,10.8570107 L76.9685964,12.821474 Z M85.7110326,16.2717303 L84.5928586,16.2717303 L84.5928586,14.9008183 L81.2383363,14.9008183 L81.2383363,16.2717303 L80.1239917,16.2717303 L80.1239917,14.0430409 L80.4494876,14.0430409 C80.7405206,14.0430409 80.9498571,13.8490217 81.0775031,13.4609777 C81.2051492,13.0729336 81.2881179,12.4551358 81.3264117,11.6075658 L81.4527807,9.32526538 L85.0485528,9.32526538 L85.0485528,14.0430409 L85.7110326,14.0430409 L85.7110326,16.2717303 Z M82.4445858,11.6075658 C82.4190566,12.1462323 82.3603403,12.6185158 82.2684351,13.0244303 C82.1765299,13.4303448 82.0514386,13.7698783 81.8931575,14.0430409 L83.9342081,14.0430409 L83.9342081,10.1868721 L82.521173,10.1868721 L82.4445858,11.6075658 Z M89.3795626,12.4500258 L87.3117065,12.4500258 L87.3117065,14.0430409 L89.7701577,14.0430409 L89.7701577,14.9008183 L86.1935324,14.9008183 L86.1935324,9.32526538 L89.762499,9.32526538 L89.762499,10.1868721 L87.3117065,10.1868721 L87.3117065,11.5884191 L89.3795626,11.5884191 L89.3795626,12.4500258 Z M93.4386877,13.4341721 L93.4616638,13.4341721 L94.8938457,9.32526538 L96.3528331,9.32526538 L96.3528331,14.9008183 L95.234659,14.9008183 L95.234659,11.0944312 L95.2116829,11.0906019 L93.8331121,14.9008183 L93.0748982,14.9008183 L91.6963274,11.0829431 L91.6733512,11.0867725 L91.6733512,14.9008183 L90.5551772,14.9008183 L90.5551772,9.32526538 L92.0218232,9.32526538 L93.4386877,13.4341721 Z M98.5738638,14.9008183 L97.4556897,14.9008183 L97.4556897,9.32526538 L98.5738638,9.32526538 L98.5738638,14.9008183 Z M101.208466,12.5725654 L100.798724,12.5725654 L100.798724,14.9008183 L99.6805497,14.9008183 L99.6805497,9.32526538 L100.798724,9.32526538 L100.798724,11.6037365 L101.112732,11.6037365 L102.640648,9.32526538 L104.023048,9.32526538 L102.093049,11.9177443 L104.172393,14.9008183 L102.74787,14.9008183 L101.208466,12.5725654 Z M107.584355,13.6983982 L105.776896,13.6983982 L105.401618,14.9008183 L104.233663,14.9008183 L106.11388,9.32526538 L107.25886,9.32526538 L109.131418,14.9008183 L107.963462,14.9008183 L107.584355,13.6983982 Z M106.05261,12.821474 L107.312471,12.821474 L106.695943,10.8570107 L106.672967,10.8570107 L106.05261,12.821474 Z M114.504015,13.4341721 L114.526991,13.4341721 L115.959173,9.32526538 L117.41816,9.32526538 L117.41816,14.9008183 L116.299986,14.9008183 L116.299986,11.0944312 L116.27701,11.0906019 L114.898439,14.9008183 L114.140225,14.9008183 L112.761655,11.0829431 L112.738678,11.0867725 L112.738678,14.9008183 L111.620504,14.9008183 L111.620504,9.32526538 L113.08715,9.32526538 L114.504015,13.4341721 Z M119.600897,14.9008183 L118.482723,14.9008183 L118.482723,13.9205013 L119.600897,13.9205013 L119.600897,14.9008183 Z M125.854247,16.2717303 L124.736073,16.2717303 L124.736073,14.9008183 L121.381551,14.9008183 L121.381551,16.2717303 L120.267207,16.2717303 L120.267207,14.0430409 L120.592703,14.0430409 C120.883736,14.0430409 121.093072,13.8490217 121.220718,13.4609777 C121.348364,13.0729336 121.431333,12.4551358 121.469627,11.6075658 L121.595996,9.32526538 L125.191768,9.32526538 L125.191768,14.0430409 L125.854247,14.0430409 L125.854247,16.2717303 Z M122.587801,11.6075658 C122.562272,12.1462323 122.503555,12.6185158 122.41165,13.0244303 C122.319745,13.4303448 122.194653,13.7698783 122.036372,14.0430409 L124.077423,14.0430409 L124.077423,10.1868721 L122.664388,10.1868721 L122.587801,11.6075658 Z M127.493215,14.9008183 L126.375041,14.9008183 L126.375041,13.9205013 L127.493215,13.9205013 L127.493215,14.9008183 Z" id="Інститут-кардіології" fill="#82858A"></path>
            <path d="M50.6853816,28.2175764 L50.69966,28.2604115 C50.7186979,29.3693728 50.3807792,30.2379667 49.6858936,30.8662194 C48.9910081,31.4944721 48.0319852,31.8085938 46.8087962,31.8085938 C45.5618098,31.8085938 44.5551927,31.4076127 43.7889148,30.6056386 C43.0226369,29.8036645 42.6395037,28.7673011 42.6395037,27.4965172 L42.6395037,25.4332885 C42.6395037,24.1672641 43.013118,23.1309007 43.760358,22.3241671 C44.5075979,21.5174336 45.4880382,21.1140728 46.7017082,21.1140728 C47.9677326,21.1140728 48.9576917,21.423435 49.6716152,22.0421687 C50.3855388,22.6609024 50.7329764,23.5318761 50.7139384,24.6551158 L50.69966,24.697951 L48.6721273,24.697951 C48.6721273,24.0316224 48.5114969,23.535453 48.1902313,23.2094278 C47.8689657,22.8834028 47.3727963,22.7203927 46.7017082,22.7203927 C46.078215,22.7203927 45.5915644,22.971452 45.2417419,23.4735782 C44.8919194,23.9757045 44.7170107,24.6241753 44.7170107,25.4190101 L44.7170107,27.4965172 C44.7170107,28.2961115 44.9014382,28.9481519 45.2702987,29.4526579 C45.6391592,29.9571639 46.1519866,30.2094131 46.8087962,30.2094131 C47.4322894,30.2094131 47.8975226,30.046403 48.2045097,29.7203779 C48.5114968,29.3943528 48.6649881,28.8934239 48.6649881,28.2175764 L50.6853816,28.2175764 Z M59.4380403,22.8703159 L56.4681332,22.8703159 L56.4681332,31.6586706 L54.383487,31.6586706 L54.383487,22.8703159 L51.4564152,22.8703159 L51.4564152,21.263996 L59.4380403,21.263996 L59.4380403,22.8703159 Z M62.6649585,27.8891732 L62.6649585,31.6586706 L60.5803122,31.6586706 L60.5803122,21.263996 L64.5568464,21.263996 C65.7514784,21.263996 66.6914636,21.5685987 67.3768302,22.1778135 C68.0621967,22.7870283 68.4048749,23.5889903 68.4048749,24.5837238 C68.4048749,25.5784572 68.0621967,26.3780395 67.3768302,26.9824948 C66.6914636,27.5869501 65.7514784,27.8891732 64.5568464,27.8891732 L62.6649585,27.8891732 Z M62.6649585,26.2828533 L64.5568464,26.2828533 C65.1375041,26.2828533 65.5777504,26.1246026 65.8775983,25.8080965 C66.1774461,25.4915904 66.3273679,25.0882297 66.3273679,24.5980022 C66.3273679,24.0982557 66.178636,23.6853761 65.8811679,23.3593511 C65.5836997,23.033326 65.1422636,22.8703159 64.5568464,22.8703159 L62.6649585,22.8703159 L62.6649585,26.2828533 Z M75.3156201,29.4169619 L71.9459179,29.4169619 L71.2462764,31.6586706 L69.0688205,31.6586706 L72.5741675,21.263996 L74.7087881,21.263996 L78.1998567,31.6586706 L76.0224008,31.6586706 L75.3156201,29.4169619 Z M72.4599403,27.7820852 L74.8087369,27.7820852 L73.6593258,24.1196758 L73.6164906,24.1196758 L72.4599403,27.7820852 Z M86.652669,27.3180372 L85.9958626,27.3180372 L85.9958626,31.6586706 L83.9183556,31.6586706 L83.9183556,27.3180372 L83.2258532,27.3180372 L80.8841957,31.6586706 L78.2855271,31.6586706 L81.5624197,26.0543989 L78.4568679,21.263996 L81.034119,21.263996 L83.3900548,25.5118197 L83.9183556,25.5118197 L83.9183556,21.263996 L85.9958626,21.263996 L85.9958626,25.5118197 L86.4956067,25.5118197 L88.8015681,21.263996 L91.3716799,21.263996 L88.3089633,26.0472597 L91.5430207,31.6586706 L88.9514913,31.6586706 L86.652669,27.3180372 Z M98.4894619,27.0895828 L94.6342942,27.0895828 L94.6342942,30.0594898 L99.2176603,30.0594898 L99.2176603,31.6586706 L92.5496479,31.6586706 L92.5496479,21.263996 L99.2033819,21.263996 L99.2033819,22.8703159 L94.6342942,22.8703159 L94.6342942,25.4832629 L98.4894619,25.4832629 L98.4894619,27.0895828 Z M108.477202,28.2175764 L108.491481,28.2604115 C108.510519,29.3693728 108.1726,30.2379667 107.477714,30.8662194 C106.782829,31.4944721 105.823806,31.8085938 104.600617,31.8085938 C103.35363,31.8085938 102.347013,31.4076127 101.580735,30.6056386 C100.814457,29.8036645 100.431324,28.7673011 100.431324,27.4965172 L100.431324,25.4332885 C100.431324,24.1672641 100.804939,23.1309007 101.552179,22.3241671 C102.299419,21.5174336 103.279859,21.1140728 104.493529,21.1140728 C105.759553,21.1140728 106.749512,21.423435 107.463436,22.0421687 C108.177359,22.6609024 108.524797,23.5318761 108.505759,24.6551158 L108.491481,24.697951 L106.463948,24.697951 C106.463948,24.0316224 106.303317,23.535453 105.982052,23.2094278 C105.660786,22.8834028 105.164617,22.7203927 104.493529,22.7203927 C103.870036,22.7203927 103.383385,22.971452 103.033562,23.4735782 C102.68374,23.9757045 102.508831,24.6241753 102.508831,25.4190101 L102.508831,27.4965172 C102.508831,28.2961115 102.693259,28.9481519 103.062119,29.4526579 C103.43098,29.9571639 103.943807,30.2094131 104.600617,30.2094131 C105.22411,30.2094131 105.689343,30.046403 105.99633,29.7203779 C106.303317,29.3943528 106.456809,28.8934239 106.456809,28.2175764 L108.477202,28.2175764 Z M112.832114,27.3180372 L112.06822,27.3180372 L112.06822,31.6586706 L109.983573,31.6586706 L109.983573,21.263996 L112.06822,21.263996 L112.06822,25.5118197 L112.653634,25.5118197 L115.502174,21.263996 L118.079426,21.263996 L114.481269,26.0972341 L118.357854,31.6586706 L115.702072,31.6586706 L112.832114,27.3180372 Z M124.718881,29.4169619 L121.349179,29.4169619 L120.649537,31.6586706 L118.472082,31.6586706 L121.977429,21.263996 L124.112049,21.263996 L127.603118,31.6586706 L125.425662,31.6586706 L124.718881,29.4169619 Z M121.863201,27.7820852 L124.211998,27.7820852 L123.062587,24.1196758 L123.019752,24.1196758 L121.863201,27.7820852 Z" id="Стражеска" fill="#4A4A4A"></path>
        </g>
    </g>
</svg>