<?xml version="1.0" encoding="UTF-8"?>
<svg width="109px" height="25px" viewBox="0 0 109 25" version="1.1" xmlns="http://www.w3.org/2000/svg" xmlns:xlink="http://www.w3.org/1999/xlink">
    <!-- Generator: Sketch 48.1 (47250) - http://www.bohemiancoding.com/sketch -->
    <title>Artboard</title>
    <desc>Created with Sketch.</desc>
    <defs></defs>
    <g id="Page-1" stroke="none" stroke-width="1" fill="none" fill-rule="evenodd">
        <g id="Artboard" fill="#FF4400">
            <path d="M12.2753906,14.2636719 L12.2929688,14.3164062 C12.3164064,15.6816475 11.9003949,16.7509727 11.0449219,17.5244141 C10.1894488,18.2978554 9.00879659,18.6845703 7.50292969,18.6845703 C5.96776576,18.6845703 4.72852034,18.1909229 3.78515625,17.2036133 C2.84179216,16.2163037 2.37011719,14.9404375 2.37011719,13.3759766 L2.37011719,10.8359375 C2.37011719,9.27733596 2.83007353,8.00146981 3.75,7.00830078 C4.66992647,6.01513175 5.87694565,5.51855469 7.37109375,5.51855469 C8.92969529,5.51855469 10.1484331,5.89941025 11.0273438,6.66113281 C11.9062544,7.42285537 12.3339845,8.49511027 12.3105469,9.87792969 L12.2929688,9.93066406 L9.796875,9.93066406 C9.796875,9.11034746 9.59912307,8.49951373 9.20361328,8.09814453 C8.80810349,7.69677534 8.19726976,7.49609375 7.37109375,7.49609375 C6.60351179,7.49609375 6.00439668,7.80517269 5.57373047,8.42333984 C5.14306425,9.041507 4.92773438,9.83983886 4.92773438,10.8183594 L4.92773438,13.3759766 C4.92773438,14.3603565 5.15478289,15.1630828 5.60888672,15.7841797 C6.06299055,16.4052765 6.69433189,16.7158203 7.50292969,16.7158203 C8.27051165,16.7158203 8.84325983,16.5151387 9.22119141,16.1137695 C9.59912298,15.7124003 9.78808594,15.0957073 9.78808594,14.2636719 L12.2753906,14.2636719 Z M23.0507812,7.68066406 L19.3945313,7.68066406 L19.3945313,18.5 L16.828125,18.5 L16.828125,7.68066406 L13.2246094,7.68066406 L13.2246094,5.703125 L23.0507812,5.703125 L23.0507812,7.68066406 Z M27.0234375,13.859375 L27.0234375,18.5 L24.4570312,18.5 L24.4570312,5.703125 L29.3525391,5.703125 C30.8232495,5.703125 31.9804645,6.07812125 32.8242188,6.828125 C33.667973,7.57812875 34.0898438,8.56542356 34.0898438,9.79003906 C34.0898438,11.0146546 33.667973,11.9990197 32.8242188,12.7431641 C31.9804645,13.4873084 30.8232495,13.859375 29.3525391,13.859375 L27.0234375,13.859375 Z M27.0234375,11.8818359 L29.3525391,11.8818359 C30.0673864,11.8818359 30.6093732,11.6870137 30.9785156,11.2973633 C31.3476581,10.9077129 31.5322266,10.4111358 31.5322266,9.80761719 C31.5322266,9.19237974 31.3491229,8.68408404 30.9829102,8.28271484 C30.6166974,7.88134565 30.0732458,7.68066406 29.3525391,7.68066406 L27.0234375,7.68066406 L27.0234375,11.8818359 Z M42.5976562,15.7402344 L38.4492188,15.7402344 L37.5878906,18.5 L34.9072266,18.5 L39.2226562,5.703125 L41.8505859,5.703125 L46.1484375,18.5 L43.4677734,18.5 L42.5976562,15.7402344 Z M39.0820312,13.7275391 L41.9736328,13.7275391 L40.5585938,9.21875 L40.5058594,9.21875 L39.0820312,13.7275391 Z M56.5546875,13.15625 L55.7460938,13.15625 L55.7460938,18.5 L53.1884766,18.5 L53.1884766,13.15625 L52.3359375,13.15625 L49.453125,18.5 L46.2539062,18.5 L50.2880859,11.6005859 L46.4648438,5.703125 L49.6376953,5.703125 L52.5380859,10.9326172 L53.1884766,10.9326172 L53.1884766,5.703125 L55.7460938,5.703125 L55.7460938,10.9326172 L56.3613281,10.9326172 L59.2001953,5.703125 L62.3642578,5.703125 L58.59375,11.5917969 L62.5751953,18.5 L59.3847656,18.5 L56.5546875,13.15625 Z M71.1269531,12.875 L66.3808594,12.875 L66.3808594,16.53125 L72.0234375,16.53125 L72.0234375,18.5 L63.8144531,18.5 L63.8144531,5.703125 L72.0058594,5.703125 L72.0058594,7.68066406 L66.3808594,7.68066406 L66.3808594,10.8974609 L71.1269531,10.8974609 L71.1269531,12.875 Z M83.4228516,14.2636719 L83.4404297,14.3164062 C83.4638673,15.6816475 83.0478558,16.7509727 82.1923828,17.5244141 C81.3369098,18.2978554 80.1562575,18.6845703 78.6503906,18.6845703 C77.1152267,18.6845703 75.8759813,18.1909229 74.9326172,17.2036133 C73.9892531,16.2163037 73.5175781,14.9404375 73.5175781,13.3759766 L73.5175781,10.8359375 C73.5175781,9.27733596 73.9775345,8.00146981 74.8974609,7.00830078 C75.8173874,6.01513175 77.0244066,5.51855469 78.5185547,5.51855469 C80.0771562,5.51855469 81.295894,5.89941025 82.1748047,6.66113281 C83.0537153,7.42285537 83.4814454,8.49511027 83.4580078,9.87792969 L83.4404297,9.93066406 L80.9443359,9.93066406 C80.9443359,9.11034746 80.746584,8.49951373 80.3510742,8.09814453 C79.9555644,7.69677534 79.3447307,7.49609375 78.5185547,7.49609375 C77.7509727,7.49609375 77.1518576,7.80517269 76.7211914,8.42333984 C76.2905252,9.041507 76.0751953,9.83983886 76.0751953,10.8183594 L76.0751953,13.3759766 C76.0751953,14.3603565 76.3022438,15.1630828 76.7563477,15.7841797 C77.2104515,16.4052765 77.8417928,16.7158203 78.6503906,16.7158203 C79.4179726,16.7158203 79.9907208,16.5151387 80.3686523,16.1137695 C80.7465839,15.7124003 80.9355469,15.0957073 80.9355469,14.2636719 L83.4228516,14.2636719 Z M88.7841797,13.15625 L87.84375,13.15625 L87.84375,18.5 L85.2773438,18.5 L85.2773438,5.703125 L87.84375,5.703125 L87.84375,10.9326172 L88.5644531,10.9326172 L92.0712891,5.703125 L95.2441406,5.703125 L90.8144531,11.6533203 L95.5869141,18.5 L92.3173828,18.5 L88.7841797,13.15625 Z M103.417969,15.7402344 L99.2695312,15.7402344 L98.4082031,18.5 L95.7275391,18.5 L100.042969,5.703125 L102.670898,5.703125 L106.96875,18.5 L104.288086,18.5 L103.417969,15.7402344 Z M99.9023437,13.7275391 L102.793945,13.7275391 L101.378906,9.21875 L101.326172,9.21875 L99.9023437,13.7275391 Z" id="Стражеска"></path>
        </g>
    </g>
</svg>