<?xml version="1.0" encoding="UTF-8"?>
<svg width="130px" height="33px" viewBox="0 0 130 33" version="1.1" xmlns="http://www.w3.org/2000/svg" xmlns:xlink="http://www.w3.org/1999/xlink">
    <!-- Generator: Sketch 48.1 (47250) - http://www.bohemiancoding.com/sketch -->
    <title>Group 2</title>
    <desc>Created with Sketch.</desc>
    <defs></defs>
    <g id="Artboard" stroke="none" stroke-width="1" fill="none" fill-rule="evenodd" transform="translate(-73.000000, -166.000000)">
        <g id="Group-2" transform="translate(73.000000, 166.000000)" fill-rule="nonzero">
            <path d="M43.5150484,8.08660265 L42.3968743,8.08660265 L42.3968743,2.51104976 L43.5150484,2.51104976 L43.5150484,8.08660265 Z M49.1288949,8.08660265 L48.0107208,8.08660265 L48.0107208,5.76983789 L45.7399084,5.76983789 L45.7399084,8.08660265 L44.6217344,8.08660265 L44.6217344,2.51104976 L45.7399084,2.51104976 L45.7399084,4.90823115 L48.0107208,4.90823115 L48.0107208,2.51104976 L49.1288949,2.51104976 L49.1288949,8.08660265 Z M54.3368289,6.24084957 L54.3444876,6.26382574 C54.3546993,6.85865647 54.1734446,7.32455767 53.800718,7.66154333 C53.4279915,7.99852898 52.9135855,8.16701927 52.2574847,8.16701927 C51.5886192,8.16701927 51.0486844,7.95193886 50.637664,7.52177157 C50.2266436,7.09160428 50.0211365,6.53571394 50.0211365,5.85408387 L50.0211365,4.7473979 C50.0211365,4.06832075 50.2215379,3.51243042 50.6223465,3.07971021 C51.0231552,2.64698999 51.5490492,2.43063313 52.2000442,2.43063313 C52.8791213,2.43063313 53.4101211,2.59657055 53.7930593,2.92845035 C54.1759976,3.26033016 54.362358,3.72750781 54.3521463,4.32999731 L54.3444876,4.35297348 L53.2569484,4.35297348 C53.2569484,3.99556446 53.1707887,3.72942637 52.9984665,3.55455125 C52.8261442,3.37967612 52.5600062,3.29223986 52.2000442,3.29223986 C51.8656115,3.29223986 51.6045791,3.42690446 51.4169394,3.69623769 C51.2292997,3.96557092 51.1354812,4.31340127 51.1354812,4.73973917 L51.1354812,5.85408387 C51.1354812,6.28297471 51.2344055,6.63271972 51.4322569,6.90332941 C51.6301083,7.1739391 51.9051815,7.30924191 52.2574847,7.30924191 C52.5919174,7.30924191 52.8414617,7.22180565 53.0061252,7.04693053 C53.1707886,6.8720554 53.2531191,6.60336443 53.2531191,6.24084957 L54.3368289,6.24084957 Z M59.0316283,3.37265649 L57.4386131,3.37265649 L57.4386131,8.08660265 L56.320439,8.08660265 L56.320439,3.37265649 L54.7504001,3.37265649 L54.7504001,2.51104976 L59.0316283,2.51104976 L59.0316283,3.37265649 Z M62.9950192,2.51104976 L64.1131933,2.51104976 L64.1131933,8.08660265 L62.9950192,8.08660265 L62.9950192,4.36063221 L62.9720431,4.35680284 L60.7203774,8.08660265 L59.6060328,8.08660265 L59.6060328,2.51104976 L60.7203774,2.51104976 L60.7203774,6.23319084 L60.7433536,6.2370202 L62.9950192,2.51104976 Z M69.0109489,3.37265649 L67.4179338,3.37265649 L67.4179338,8.08660265 L66.2997597,8.08660265 L66.2997597,3.37265649 L64.7297208,3.37265649 L64.7297208,2.51104976 L69.0109489,2.51104976 L69.0109489,3.37265649 Z M71.5498167,4.98864778 L71.6493802,5.32563175 L71.6723564,5.32946111 L72.8441415,2.51104976 L74.0274147,2.51104976 L71.9940228,7.02969839 C71.8331888,7.38966034 71.6391697,7.66920106 71.4119596,7.86832895 C71.1847496,8.06745683 70.8669156,8.16701927 70.4584482,8.16701927 C70.3052729,8.16701927 70.1686936,8.15361664 70.0487063,8.12681096 C69.928719,8.10000528 69.7908633,8.06107381 69.6351351,8.01001538 L69.7653334,7.20967847 C69.8802149,7.24286645 69.981692,7.26775706 70.0697678,7.28435105 C70.1578436,7.30094504 70.2465563,7.30924191 70.3359086,7.30924191 C70.5452481,7.30924191 70.7060798,7.26392823 70.8184083,7.17329952 C70.9307369,7.0826708 71.0188113,6.9480062 71.0826344,6.76930169 L71.1668804,6.55868671 L69.202417,2.51104976 L70.4086664,2.51104976 L71.5498167,4.98864778 Z M78.5269165,3.37265649 L76.9339014,3.37265649 L76.9339014,8.08660265 L75.8157274,8.08660265 L75.8157274,3.37265649 L74.2456885,3.37265649 L74.2456885,2.51104976 L78.5269165,2.51104976 L78.5269165,3.37265649 Z M82.6205059,5.75834979 L82.210764,5.75834979 L82.210764,8.08660265 L81.0925899,8.08660265 L81.0925899,2.51104976 L82.210764,2.51104976 L82.210764,4.7895209 L82.5247718,4.7895209 L84.0526877,2.51104976 L85.4350879,2.51104976 L83.5050888,5.10352868 L85.584433,8.08660265 L84.1599099,8.08660265 L82.6205059,5.75834979 Z M88.9963957,6.88418259 L87.1889362,6.88418259 L86.8136586,8.08660265 L85.6457028,8.08660265 L87.5259202,2.51104976 L88.6708997,2.51104976 L90.5434584,8.08660265 L89.3755026,8.08660265 L88.9963957,6.88418259 Z M87.4646504,6.0072584 L88.7245109,6.0072584 L88.1079834,4.04279506 L88.0850072,4.04279506 L87.4646504,6.0072584 Z M92.1977434,6.06469885 L92.1977434,8.08660265 L91.0795693,8.08660265 L91.0795693,2.51104976 L93.2125246,2.51104976 C93.8533079,2.51104976 94.3575024,2.67443429 94.7251231,3.00120826 C95.0927437,3.32798222 95.2765514,3.75814306 95.2765514,4.29170367 C95.2765514,4.82526429 95.0927437,5.25414868 94.7251231,5.57836972 C94.3575024,5.90259077 93.8533079,6.06469885 93.2125246,6.06469885 L92.1977434,6.06469885 Z M92.1977434,5.20309213 L93.2125246,5.20309213 C93.523981,5.20309213 93.7601227,5.11820875 93.9209568,4.94843947 C94.0817908,4.77867018 94.1622067,4.56231332 94.1622067,4.2993624 C94.1622067,4.03130563 94.0824291,3.809843 93.9228715,3.63496788 C93.7633138,3.46009274 93.5265339,3.37265649 93.2125246,3.37265649 L92.1977434,3.37265649 L92.1977434,5.20309213 Z M101.204406,9.45751469 L100.086232,9.45751469 L100.086232,8.08660265 L96.7317094,8.08660265 L96.7317094,9.45751469 L95.6173647,9.45751469 L95.6173647,7.22882528 L95.9428606,7.22882528 C96.2338937,7.22882528 96.4432301,7.03480615 96.5708761,6.64676207 C96.6985223,6.25871799 96.781491,5.64092023 96.8197847,4.79335026 L96.9461538,2.51104976 L100.541926,2.51104976 L100.541926,7.22882528 L101.204406,7.22882528 L101.204406,9.45751469 Z M97.9379588,4.79335026 C97.9124296,5.33201671 97.8537133,5.80430012 97.7618081,6.21021466 C97.6699029,6.61612919 97.5448117,6.95566267 97.3865305,7.22882528 L99.4275812,7.22882528 L99.4275812,3.37265649 L98.0145461,3.37265649 L97.9379588,4.79335026 Z M102.881667,8.08660265 L101.763493,8.08660265 L101.763493,2.51104976 L102.881667,2.51104976 L102.881667,8.08660265 Z M108.499343,5.80047279 C108.499343,6.4872087 108.283624,7.05331057 107.85218,7.49879539 C107.420737,7.94428021 106.859102,8.16701927 106.16726,8.16701927 C105.477972,8.16701927 104.91889,7.94364199 104.489999,7.49688071 C104.061108,7.05011943 103.846666,6.48465578 103.846666,5.80047279 L103.846666,4.79717962 C103.846666,4.11554955 104.06047,3.55072412 104.488085,3.10268638 C104.915699,2.65464864 105.472866,2.43063313 106.159602,2.43063313 C106.851443,2.43063313 107.414354,2.65464864 107.848351,3.10268638 C108.282348,3.55072412 108.499343,4.11554955 108.499343,4.79717962 L108.499343,5.80047279 Z M107.384998,4.7895209 C107.384998,4.35552422 107.2765,3.999397 107.059502,3.72112855 C106.842504,3.4428601 106.54254,3.30372796 106.159602,3.30372796 C105.781769,3.30372796 105.48755,3.4428601 105.276934,3.72112855 C105.066317,3.999397 104.961011,4.35552422 104.961011,4.7895209 L104.961011,5.80047279 C104.961011,6.24212822 105.066956,6.60208477 105.278848,6.88035322 C105.490741,7.15862168 105.786875,7.29775382 106.16726,7.29775382 C106.550199,7.29775382 106.848886,7.15862168 107.063331,6.88035322 C107.277777,6.60208477 107.384998,6.24212822 107.384998,5.80047279 L107.384998,4.7895209 Z M113.891086,2.51104976 L113.891086,8.08660265 L112.772912,8.08660265 L112.772912,3.37265649 L111.187556,3.37265649 L111.187556,5.0499176 C111.187556,6.12725051 111.024809,6.90268881 110.699312,7.37625577 C110.373814,7.84982273 109.872811,8.08660265 109.196287,8.08660265 L109.031624,8.08660265 L109.031624,7.22882528 L109.184799,7.22882528 C109.534549,7.22882528 109.769414,7.0730994 109.889402,6.76164297 C110.009389,6.45018653 110.069382,5.87961712 110.069382,5.0499176 L110.069382,2.51104976 L113.891086,2.51104976 Z M119.424516,5.80047279 C119.424516,6.4872087 119.208797,7.05331057 118.777354,7.49879539 C118.34591,7.94428021 117.784276,8.16701927 117.092434,8.16701927 C116.403145,8.16701927 115.844064,7.94364199 115.415173,7.49688071 C114.986282,7.05011943 114.77184,6.48465578 114.77184,5.80047279 L114.77184,4.79717962 C114.77184,4.11554955 114.985644,3.55072412 115.413258,3.10268638 C115.840872,2.65464864 116.398039,2.43063313 117.084775,2.43063313 C117.776617,2.43063313 118.339528,2.65464864 118.773524,3.10268638 C119.207521,3.55072412 119.424516,4.11554955 119.424516,4.79717962 L119.424516,5.80047279 Z M118.310171,4.7895209 C118.310171,4.35552422 118.201674,3.999397 117.984675,3.72112855 C117.767677,3.4428601 117.467713,3.30372796 117.084775,3.30372796 C116.706943,3.30372796 116.412723,3.4428601 116.202107,3.72112855 C115.991491,3.999397 115.886184,4.35552422 115.886184,4.7895209 L115.886184,5.80047279 C115.886184,6.24212822 115.992129,6.60208477 116.204022,6.88035322 C116.415914,7.15862168 116.712049,7.29775382 117.092434,7.29775382 C117.475372,7.29775382 117.774059,7.15862168 117.988505,6.88035322 C118.20295,6.60208477 118.310171,6.24212822 118.310171,5.80047279 L118.310171,4.7895209 Z M123.935506,3.37265649 L121.419614,3.37265649 L121.419614,8.08660265 L120.30144,8.08660265 L120.30144,2.51104976 L123.935506,2.51104976 L123.935506,3.37265649 Z M125.857847,8.08660265 L124.739672,8.08660265 L124.739672,2.51104976 L125.857847,2.51104976 L125.857847,8.08660265 Z M128.159294,8.08660265 L127.04112,8.08660265 L127.04112,2.51104976 L128.159294,2.51104976 L128.159294,8.08660265 Z M129.070682,1.95579209 L128.052071,1.95579209 L128.052071,1.17460199 L129.070682,1.17460199 L129.070682,1.95579209 Z M127.156,1.95579209 L126.13739,1.95579209 L126.13739,1.17460199 L127.156,1.17460199 L127.156,1.95579209 Z M43.5150484,15.9291386 L42.3968743,15.9291386 L42.3968743,10.3535857 L43.5150484,10.3535857 L43.5150484,15.9291386 Z M47.5052449,14.4624924 L47.5282211,14.4624924 L48.9604029,10.3535857 L50.4193903,10.3535857 L50.4193903,15.9291386 L49.3012162,15.9291386 L49.3012162,12.1227515 L49.2782401,12.1189222 L47.8996693,15.9291386 L47.1414554,15.9291386 L45.7628846,12.1112634 L45.7399084,12.1150928 L45.7399084,15.9291386 L44.6217344,15.9291386 L44.6217344,10.3535857 L46.0883805,10.3535857 L47.5052449,14.4624924 Z M54.6316899,13.4783461 L52.5638337,13.4783461 L52.5638337,15.0713612 L55.0222849,15.0713612 L55.0222849,15.9291386 L51.4456596,15.9291386 L51.4456596,10.3535857 L55.0146262,10.3535857 L55.0146262,11.2151924 L52.5638337,11.2151924 L52.5638337,12.6167394 L54.6316899,12.6167394 L54.6316899,13.4783461 Z M60.314465,15.9291386 L59.1962908,15.9291386 L59.1962908,13.6123738 L56.9254785,13.6123738 L56.9254785,15.9291386 L55.8073044,15.9291386 L55.8073044,10.3535857 L56.9254785,10.3535857 L56.9254785,12.7507671 L59.1962908,12.7507671 L59.1962908,10.3535857 L60.314465,10.3535857 L60.314465,15.9291386 Z M62.5354956,15.9291386 L61.4173216,15.9291386 L61.4173216,10.3535857 L62.5354956,10.3535857 L62.5354956,15.9291386 Z M68.5016436,14.7267185 L66.6941841,14.7267185 L66.3189065,15.9291386 L65.1509507,15.9291386 L67.0311681,10.3535857 L68.1761476,10.3535857 L70.0487063,15.9291386 L68.8807505,15.9291386 L68.5016436,14.7267185 Z M66.9698983,13.8497943 L68.2297588,13.8497943 L67.6132313,11.885331 L67.5902551,11.885331 L66.9698983,13.8497943 Z M72.1127331,13.6008857 L71.7029913,13.6008857 L71.7029913,15.9291386 L70.5848172,15.9291386 L70.5848172,10.3535857 L71.7029913,10.3535857 L71.7029913,12.6320568 L72.016999,12.6320568 L73.544915,10.3535857 L74.9273151,10.3535857 L72.997316,12.9460646 L75.0766603,15.9291386 L73.6521371,15.9291386 L72.1127331,13.6008857 Z M78.4886229,14.7267185 L76.6811634,14.7267185 L76.3058859,15.9291386 L75.1379301,15.9291386 L77.0181474,10.3535857 L78.163127,10.3535857 L80.0356857,15.9291386 L78.8677298,15.9291386 L78.4886229,14.7267185 Z M76.9568776,13.8497943 L78.2167381,13.8497943 L77.6002106,11.885331 L77.5772344,11.885331 L76.9568776,13.8497943 Z M85.6993139,17.3000506 L84.5811398,17.3000506 L84.5811398,15.9291386 L81.2266176,15.9291386 L81.2266176,17.3000506 L80.1122729,17.3000506 L80.1122729,15.0713612 L80.4377688,15.0713612 C80.7288019,15.0713612 80.9381383,14.877342 81.0657844,14.489298 C81.1934304,14.1012539 81.2763992,13.4834561 81.314693,12.6358861 L81.4410619,10.3535857 L85.0368341,10.3535857 L85.0368341,15.0713612 L85.6993139,15.0713612 L85.6993139,17.3000506 Z M82.4328671,12.6358861 C82.4073378,13.1745526 82.3486215,13.6468361 82.2567163,14.0527506 C82.1648111,14.4586651 82.0397199,14.7981986 81.8814388,15.0713612 L83.9224893,15.0713612 L83.9224893,11.2151924 L82.5094543,11.2151924 L82.4328671,12.6358861 Z M89.3678439,13.4783461 L87.2999878,13.4783461 L87.2999878,15.0713612 L89.7584389,15.0713612 L89.7584389,15.9291386 L86.1818137,15.9291386 L86.1818137,10.3535857 L89.7507802,10.3535857 L89.7507802,11.2151924 L87.2999878,11.2151924 L87.2999878,12.6167394 L89.3678439,12.6167394 L89.3678439,13.4783461 Z M93.426969,14.4624924 L93.4499451,14.4624924 L94.882127,10.3535857 L96.3411144,10.3535857 L96.3411144,15.9291386 L95.2229403,15.9291386 L95.2229403,12.1227515 L95.1999641,12.1189222 L93.8213934,15.9291386 L93.0631794,15.9291386 L91.6846087,12.1112634 L91.6616325,12.1150928 L91.6616325,15.9291386 L90.5434584,15.9291386 L90.5434584,10.3535857 L92.0101045,10.3535857 L93.426969,14.4624924 Z M98.562145,15.9291386 L97.443971,15.9291386 L97.443971,10.3535857 L98.562145,10.3535857 L98.562145,15.9291386 Z M101.196747,13.6008857 L100.787005,13.6008857 L100.787005,15.9291386 L99.668831,15.9291386 L99.668831,10.3535857 L100.787005,10.3535857 L100.787005,12.6320568 L101.101013,12.6320568 L102.628929,10.3535857 L104.011329,10.3535857 L102.08133,12.9460646 L104.160674,15.9291386 L102.736151,15.9291386 L101.196747,13.6008857 Z M107.572637,14.7267185 L105.765177,14.7267185 L105.3899,15.9291386 L104.221944,15.9291386 L106.102161,10.3535857 L107.247141,10.3535857 L109.1197,15.9291386 L107.951744,15.9291386 L107.572637,14.7267185 Z M106.040891,13.8497943 L107.300752,13.8497943 L106.684224,11.885331 L106.661248,11.885331 L106.040891,13.8497943 Z M114.492296,14.4624924 L114.515272,14.4624924 L115.947454,10.3535857 L117.406442,10.3535857 L117.406442,15.9291386 L116.288268,15.9291386 L116.288268,12.1227515 L116.265291,12.1189222 L114.886721,15.9291386 L114.128507,15.9291386 L112.749936,12.1112634 L112.72696,12.1150928 L112.72696,15.9291386 L111.608786,15.9291386 L111.608786,10.3535857 L113.075432,10.3535857 L114.492296,14.4624924 Z M119.589179,15.9291386 L118.471005,15.9291386 L118.471005,14.9488216 L119.589179,14.9488216 L119.589179,15.9291386 Z M125.842529,17.3000506 L124.724355,17.3000506 L124.724355,15.9291386 L121.369832,15.9291386 L121.369832,17.3000506 L120.255488,17.3000506 L120.255488,15.0713612 L120.580984,15.0713612 C120.872017,15.0713612 121.081353,14.877342 121.208999,14.489298 C121.336645,14.1012539 121.419614,13.4834561 121.457908,12.6358861 L121.584277,10.3535857 L125.180049,10.3535857 L125.180049,15.0713612 L125.842529,15.0713612 L125.842529,17.3000506 Z M122.576082,12.6358861 C122.550553,13.1745526 122.491836,13.6468361 122.399931,14.0527506 C122.308026,14.4586651 122.182935,14.7981986 122.024653,15.0713612 L124.065704,15.0713612 L124.065704,11.2151924 L122.652669,11.2151924 L122.576082,12.6358861 Z M127.481496,15.9291386 L126.363322,15.9291386 L126.363322,14.9488216 L127.481496,14.9488216 L127.481496,15.9291386 Z" id="Інститут-кардіології" fill="#82858A"></path>
            <path d="M50.6736628,29.2458967 L50.6879413,29.2887318 C50.7069792,30.3976931 50.3690605,31.266287 49.6741749,31.8945397 C48.9792893,32.5227924 48.0202664,32.8369141 46.7970775,32.8369141 C45.550091,32.8369141 44.543474,32.435933 43.777196,31.6339589 C43.0109181,30.8319848 42.6277849,29.7956214 42.6277849,28.5248376 L42.6277849,26.4616088 C42.6277849,25.1955844 43.0013993,24.159221 43.7486392,23.3524874 C44.4958792,22.5457539 45.4763195,22.1423931 46.6899895,22.1423931 C47.9560139,22.1423931 48.945973,22.4517553 49.6598965,23.070489 C50.37382,23.6892228 50.7212576,24.5601964 50.7022196,25.6834361 L50.6879413,25.7262713 L48.6604086,25.7262713 C48.6604086,25.0599427 48.4997782,24.5637733 48.1785126,24.2377481 C47.857247,23.9117231 47.3610776,23.748713 46.6899895,23.748713 C46.0664963,23.748713 45.5798457,23.9997724 45.2300232,24.5018986 C44.8802006,25.0040248 44.705292,25.6524956 44.705292,26.4473304 L44.705292,28.5248376 C44.705292,29.3244319 44.8897195,29.9764722 45.25858,30.4809782 C45.6274404,30.9854842 46.1402678,31.2377334 46.7970775,31.2377334 C47.4205707,31.2377334 47.8858039,31.0747233 48.192791,30.7486982 C48.4997781,30.4226731 48.6532693,29.9217442 48.6532693,29.2458967 L50.6736628,29.2458967 Z M59.4263215,23.8986362 L56.4564145,23.8986362 L56.4564145,32.6869909 L54.3717682,32.6869909 L54.3717682,23.8986362 L51.4446964,23.8986362 L51.4446964,22.2923163 L59.4263215,22.2923163 L59.4263215,23.8986362 Z M62.6532397,28.9174935 L62.6532397,32.6869909 L60.5685935,32.6869909 L60.5685935,22.2923163 L64.5451276,22.2923163 C65.7397596,22.2923163 66.6797448,22.5969191 67.3651114,23.2061338 C68.050478,23.8153486 68.3931562,24.6173107 68.3931562,25.6120441 C68.3931562,26.6067776 68.050478,27.4063599 67.3651114,28.0108152 C66.6797448,28.6152704 65.7397596,28.9174935 64.5451276,28.9174935 L62.6532397,28.9174935 Z M62.6532397,27.3111736 L64.5451276,27.3111736 C65.1257854,27.3111736 65.5660316,27.1529229 65.8658795,26.8364168 C66.1657274,26.5199107 66.3156491,26.11655 66.3156491,25.6263225 C66.3156491,25.126576 66.1669172,24.7136964 65.8694491,24.3876714 C65.571981,24.0616463 65.1305449,23.8986362 64.5451276,23.8986362 L62.6532397,23.8986362 L62.6532397,27.3111736 Z M75.3039014,30.4452822 L71.9341992,30.4452822 L71.2345576,32.6869909 L69.0571017,32.6869909 L72.5624487,22.2923163 L74.6970694,22.2923163 L78.1881379,32.6869909 L76.0106821,32.6869909 L75.3039014,30.4452822 Z M72.4482215,28.8104055 L74.7970182,28.8104055 L73.647607,25.1479962 L73.6047719,25.1479962 L72.4482215,28.8104055 Z M86.6409503,28.3463575 L85.9841439,28.3463575 L85.9841439,32.6869909 L83.9066368,32.6869909 L83.9066368,28.3463575 L83.2141345,28.3463575 L80.872477,32.6869909 L78.2738084,32.6869909 L81.550701,27.0827192 L78.4451491,22.2923163 L81.0224002,22.2923163 L83.3783361,26.54014 L83.9066368,26.54014 L83.9066368,22.2923163 L85.9841439,22.2923163 L85.9841439,26.54014 L86.4838879,26.54014 L88.7898494,22.2923163 L91.3599612,22.2923163 L88.2972446,27.07558 L91.531302,32.6869909 L88.9397725,32.6869909 L86.6409503,28.3463575 Z M98.4777432,28.1179031 L94.6225754,28.1179031 L94.6225754,31.0878101 L99.2059415,31.0878101 L99.2059415,32.6869909 L92.5379291,32.6869909 L92.5379291,22.2923163 L99.1916631,22.2923163 L99.1916631,23.8986362 L94.6225754,23.8986362 L94.6225754,26.5115832 L98.4777432,26.5115832 L98.4777432,28.1179031 Z M108.465483,29.2458967 L108.479762,29.2887318 C108.4988,30.3976931 108.160881,31.266287 107.465995,31.8945397 C106.77111,32.5227924 105.812087,32.8369141 104.588898,32.8369141 C103.341912,32.8369141 102.335294,32.435933 101.569017,31.6339589 C100.802739,30.8319848 100.419605,29.7956214 100.419605,28.5248376 L100.419605,26.4616088 C100.419605,25.1955844 100.79322,24.159221 101.54046,23.3524874 C102.2877,22.5457539 103.26814,22.1423931 104.48181,22.1423931 C105.747834,22.1423931 106.737794,22.4517553 107.451717,23.070489 C108.165641,23.6892228 108.513078,24.5601964 108.49404,25.6834361 L108.479762,25.7262713 L106.452229,25.7262713 C106.452229,25.0599427 106.291599,24.5637733 105.970333,24.2377481 C105.649068,23.9117231 105.152898,23.748713 104.48181,23.748713 C103.858317,23.748713 103.371666,23.9997724 103.021844,24.5018986 C102.672021,25.0040248 102.497112,25.6524956 102.497112,26.4473304 L102.497112,28.5248376 C102.497112,29.3244319 102.68154,29.9764722 103.0504,30.4809782 C103.419261,30.9854842 103.932088,31.2377334 104.588898,31.2377334 C105.212391,31.2377334 105.677624,31.0747233 105.984612,30.7486982 C106.291599,30.4226731 106.44509,29.9217442 106.44509,29.2458967 L108.465483,29.2458967 Z M112.820395,28.3463575 L112.056501,28.3463575 L112.056501,32.6869909 L109.971854,32.6869909 L109.971854,22.2923163 L112.056501,22.2923163 L112.056501,26.54014 L112.641915,26.54014 L115.490456,22.2923163 L118.067707,22.2923163 L114.46955,27.1255544 L118.346136,32.6869909 L115.690353,32.6869909 L112.820395,28.3463575 Z M124.707162,30.4452822 L121.33746,30.4452822 L120.637819,32.6869909 L118.460363,32.6869909 L121.96571,22.2923163 L124.10033,22.2923163 L127.591399,32.6869909 L125.413943,32.6869909 L124.707162,30.4452822 Z M121.851482,28.8104055 L124.200279,28.8104055 L123.050868,25.1479962 L123.008033,25.1479962 L121.851482,28.8104055 Z" id="Стражеска" fill="#4A4A4A"></path>
            <path d="M16.110872,11.0019046 C16.4111445,10.3325949 17.3039395,9.8351969 18.0294071,9.53607046 C19.6144334,10.4735625 21.0963127,12.0047232 21.2441568,14.4710837 C19.2981158,12.7015388 17.1721405,12.1067241 16.0707593,11.915329 C15.9458367,11.4740889 16.0260622,11.1910075 16.110872,11.0019046 Z M4.8632594,9.10972932 C4.54808787,11.2139291 5.1749927,13.7192563 5.86607793,15.6813424 C3.44212229,17.9047343 2.84386941,20.256487 2.7544753,21.7509732 C2.32698809,21.1790801 1.89491656,20.460489 1.46513719,19.5356038 C-1.0459204,14.1616425 2.71894687,15.952963 3.34814387,11.7732153 C3.57162914,10.2718527 4.20311829,9.39166459 4.91941724,8.87478327 C4.90337214,8.95271659 4.87701234,9.02950384 4.8632594,9.10972932 Z M6.29127298,8.26850784 C6.45745434,7.85133533 6.67177099,7.43989322 6.93995331,7.04105796 L4.85409078,4.74317094 L5.70218873,3.97186023 L7.64937579,6.11502668 C7.89463655,5.82736102 8.15938064,5.54771791 8.43443944,5.27609735 L6.51132002,3.10427894 L7.35941798,2.33296824 L9.27566092,4.49791018 C9.56791089,4.24462687 9.8635991,3.99822003 10.1615795,3.76785829 L8.24304436,1.65907419 L9.09114231,0.886617401 L11.0853186,3.08250346 C12.6737831,1.95820063 14.0192791,1.25794678 14.0192791,1.25794678 L15.1653574,3.55010341 C15.1653574,3.55010341 8.46652963,7.08690109 9.11979427,13.4441975 C8.71293647,13.656222 8.34389925,13.8739769 7.98746889,14.09517 C7.56227384,14.3564759 7.16916898,14.6258043 6.80815431,14.8974248 C6.21907005,13.1393407 5.735425,11.0259723 5.99787694,9.28049499 C6.0471583,8.94010973 6.15718182,8.60201663 6.29127298,8.26850784 Z M21.1662235,16.0343345 C22.0613106,17.0382991 22.871588,18.3654578 23.4262899,20.1327106 C25.3092966,26.1049247 25.2107338,29.5695194 23.1867595,31.0536909 C21.3920009,32.3705348 19.6614226,32.6742456 15.2673584,32.0771388 C10.8755863,31.4811781 5.22885839,30.8840713 3.97275655,23.1193907 C3.97275655,23.1193907 3.96014969,23.0609407 3.94639675,22.9749848 C3.84898009,22.3469339 3.61518012,19.582593 6.31075632,16.860657 C6.5812308,16.5867443 6.88837979,16.3139776 7.22188858,16.0435031 C7.47746404,15.836063 7.74793853,15.632061 8.04362673,15.4280591 C8.68199235,14.9925493 9.40287561,14.5650621 10.2486814,14.1616425 C10.2486814,13.3674103 10.2910863,11.636832 11.047498,9.96011943 C11.3500627,9.29539401 11.7637969,8.63754506 12.3322518,8.05075296 C13.5597017,6.78319034 15.5068887,5.84111396 18.6047384,5.84111396 L18.6047384,8.1332706 C18.6047384,8.1332706 17.6661003,8.36134018 16.7309004,8.89197444 C15.4576074,9.61514986 14.1843144,10.9021958 15.2696505,12.9662829 C15.2696505,12.9662829 18.5760865,13.1278799 21.1662235,16.0343345 Z" id="Combined-Shape" fill="#EB5C4A"></path>
        </g>
    </g>
</svg>